/* XPM */
static char *result[] = {
/* columns rows colors chars-per-pixel */
"96 96 18 1 ",
"  c #241310",
". c #31271B",
"X c #412521",
"o c #463628",
"O c #604F3C",
"+ c #7D593B",
"@ c #5C5042",
"# c #6E5240",
"$ c #7A594A",
"% c #81583A",
"& c #8A6143",
"* c #996C4F",
"= c #9E7353",
"- c #9C7355",
"; c #B28669",
": c #5196BB",
"> c #68B6D2",
", c None",
/* pixels */
",,,,,,,,,,,,,,,,,,,,,,,,,,,,,,,,,,,,,,,,,,,,,,,,,,,,,,,,,,,,,,,,,,,,,,,,,,,,,,,,,,,,,,,,,,,,,,,,",
",,,,,,,,,,,,,,,,,,,,,,,,,,,,,,,,,,,,,,,,,,,,,,,,,,,,,,,,,,,,,,,,,,,,,,,,,,,,,,,,,,,,,,,,,,,,,,,,",
",,,,,,,,,,,,,,,,,,,,,,,,,,,,,,,,,,,,,,,,,,,,,,,,,,,,,,,,,,,,,,,,,,,,,,,,,,,,,,,,,,,,,,,,,,,,,,,,",
",,,,,,,,,,,,,,,,,,,,,,,,,,,,,,,,,,,,,,,,,,,,,,,,,,,,,,,,,,,,,,,,,,,,,,,,,,,,,,,,,,,,,,,,,,,,,,,,",
",,,,,,,,,,,,,,,,,,,,,,,,,,,,,,,,,,,,,,,,,,,,,,,,,,,,,,,,,,,,,,,,,,,,,,,,,,,,,,,,,,,,,,,,,,,,,,,,",
",,,,,,,,,,,,,,,,,,,,,,,,,,,,,,,,,,,,,,,,,,,,,,,,,,,,,,,,,,,,,,,,,,,,,,,,,,,,,,,,,,,,,,,,,,,,,,,,",
",,,,,,,,,,,,,,,,,,,,,,,,,,,,,,,,,,,,,,,,,,,,,,,,,,,,,,,,,,,,,,,,,,,,,,,,,,,,,,,,,,,,,,,,,,,,,,,,",
",,,,,,,,,,,,,,,,,,,,,,,,,,,,,,,,,,,,,,,,,,,,,,,,,,,,,,,,,,,,,,,,,,,,,,,,,,,,,,,,,,,,,,,,,,,,,,,,",
",,,,,,,,,,,,,,,,,,,,,,,,,,,,,,,,,,,,,,,,,,,,,,,,,,,,,,,,,,,,,,,,,,,,,,,,,,,,,,,,,,,,,,,,,,,,,,,,",
",,,,,,,,,,,,,,,,,,,,,,,,,,,,,,,,,,,,,,,,,,,,,,,,,,,,,,,,,,,,,,,,,,,,,,,,,,,,,,,,,,,,,,,,,,,,,,,,",
",,,,,,,,,,,,,,,,,,,,,,,,,,,,,,,,,,,,,,,,,,,,,,,,,,,,,,,,,,,,,,,,,,,,,,,,,,,,,,,,,,,,,,,,,,,,,,,,",
",,,,,,,,,,,,,,,,,,,,,,,,,,,,,,,,,,,,,,,,,,,,,,,,,,,,,,,,,,,,,,,,,,,,,,,,,,,,,,,,,,,,,,,,,,,,,,,,",
",,,,,,,,,,,,,,,,,,,,,,,,,,,,,,,,,,,,,,,,,,,,,,,,,,,,,,,,,,,,,,,,,,,,,,,,,,,,,,,,,,,,,,,,,,,,,,,,",
",,,,,,,,,,,,,,,,,,,,,,,,,,,,,,,,,,,,,,,,,,,,,,,,,,,,,,,,,,,,,,,,,,,,,,,,,,,,,,,,,,,,,,,,,,,,,,,,",
",,,,,,,,,,,,,,,,,,,,,,,,,,,,,,,,,,,,,,,,,,,,,,,,,,,,,,,,,,,,,,,,,,,,,,,,,,,,,,,,,,,,,,,,,,,,,,,,",
",,,,,,,,,,,,,,,,,,,,,,,,,,,,,,,,,,,,,,,,,,,,,,,,,,,,,,,,,,,,,,,,,,,,,,,,,,,,,,,,,,,,,,,,,,,,,,,,",
",,,,,,,,,,,,,,,,,,,,,,,,,,,,,,,,,,,,,,,,,,,,,,,,,,,,,,,,,,,,,,,,,,,,,,,,,,,,,,,,,,,,,,,,,,,,,,,,",
",,,,,,,,,,,,,,,,,,,,,,,,,,,,,,,,,,,,,,,,,,,,,,,,,,,,,,,,,,,,,,,,,,,,,,,,,,,,,,,,,,,,,,,,,,,,,,,,",
",,,,,,,,,,,,,,,,,,,,,,,,,,,,,,,,,,,,,,,,,,,,,,,,,,,,,,,,,,,,,,,,,,,,,,,,,,,,,,,,,,,,,,,,,,,,,,,,",
",,,,,,,,,,,,,,,,,,,,,,,,,,,,,,,,,,,,,,,,,,,,,,,,,,,,,,,,,,,,,,,,,,,,,,,,,,,,,,,,,,,,,,,,,,,,,,,,",
",,,,,,,,,,,,,,,,,,,,,,,,,,,,,,,,,,,,,,,,,,,,,,,,,,,,,,,,,,,,,,,,,,,,,,,,,,,,,,,,,,,,,,,,,,,,,,,,",
",,,,,,,,,,,,,,,,,,,,,,,,,,,,,,,,,,,,,,,,,,,,,,,,,,,,,,,,,,,,,,,,,,,,,,,,,,,,,,,,,,,,,,,,,,,,,,,,",
",,,,,,,,,,,,,,,,,,,,,,,,,,,,,,,,,,,,,,,,,,,,,,,,,,,,,,,,,,,,,,,,,,,,,,,,,,,,,,,,,,,,,,,,,,,,,,,,",
",,,,,,,,,,,,,,,,,,,,,,,,,,,,,,,,,,,,,,,,,,,,,,,,,,,,,,,,,,,XX,,,,,,,,,,,,,,,,,,,,,,,,,,,,,,,,,,,",
",,,,,,,,,,,,,,,,,,,,,,,,,,,,,,,,,,,,,,,,,,,,,,,,,,,,,,,,,,XXXo,,,,,,,,,,,,,,,,,,,,,,,,,,,,,,,,,,",
",,,,,,,,,,,,,,,,,,,,,,,,,,,,,,,,,,,,,,,,,,,,,,,,,,,,,,,,,,XXXXo,,,=========,,,,,,,,,,,,,,,,,,,,,",
",,,,,,,,,,,,,,,,,,,,,,,,,,,,,,,,,,,,,,,,,,,,,,,,,,,,,,,XXXo=======;;;;;;;;;;=====,,,,,,,,,,,,,,,",
",,,,,,,,,,,,,,,,,,,,,,,,,,,,,,,,,,,,,,,,,,,,,,,,,,,,,,XXXXXo;;;;;;;;;;;;;;;;;;;;;========,,,,,,,",
",,,,,,,,,,,,,,,,,,,,,,,,,,,,,,,,,,,,,,,,,,,,,,,,,,,,,,oXXXXX;;;;;;;;;;;==;;;;;;;;;;;;;;;%OOO,,,,",
",,,,,,,,,,,,,,,,,,,,,,,,,,,,,,,,,,,,,,,,,,,,,,,,,,,,,,oXXXXX;;;;;;;;;;====;;;;;;;;;;;;;;%O@O#,,,",
",,,,,,,,,,,,,,,,,,,,,,,,,,,,,,,,,,,,,,,,,,,,,,,,,,,,,,-XXXXXo;;;;;;;;===++=;;;;;;;;;;;;%OO@@@,,,",
",,,,,,,,,,,,,,,,,,,,,,,,,,,,,,,,,,,,,,,,,,,,,,,,,,,,,,,ooXXXo;;;;;;;=====++=;;;;;;;;;;;%o@@@@#,,",
",,,,,,,,,,,,,,,,,,,,,,,,,,,,,,,,,,,,,,,,,,,,,,,,,,,,,,=;-ooo-;;;;;;;=+==  +==;;;;;;;;;;%o@@@@#o,",
",,,,,,,,,,,,,,,,,,,,,,,,,,,,,,,,,,,,,,,,,,,,,,,,,,,,,,=;;---;;;;;;;;=++++ ++=;;;;;;;;;;;o@@@..o,",
",,,,,,,,,,,,,,,,,,,,,,,,,,,,,,,,,,,,,,,,,,,,,,,,,,,,,,=;;;;;;;;;;;;;-===$++==;;;;;;;;;;;oo@@..o,",
",,,,,,,,,,,,,,,,,,,,,,,,,,,,,,,,,,,,,,,,,,,,,,,,,,,,,%=;;;;;;;;;;;;;;===-===;;;;;;;;;;;;%oOOOOO,",
",,,,,,,,,,,,,,,,,,,,,,,,,,,,,,,,,,,,,,,,,,,,,,,,,,,,*%=;;;;;;;;;;;;;;;;===;;;;;;;;;;;;;;;;oOOOO,",
",,,,,,,,,,,,,,,,,,,,,,,,,,,,,,,,,,,,,,,,,,,,,,,,,,&&*%=;;;;;;;;;;;;;;;;;;;;;;;;;;;;;;;;;;;oOOO,,",
",,,,,,,,,,,,,,,,,,,,,,,,,,,,,,,,,,,,,,,,,,,,,,,,,,&**%=;;;;;;;;;;;;;;;;;;;;;;;;;;;;;;;;;;;;ooO,,",
",,,,,,,,,,,,,,,,,,,,,,,,,,,,,,,,,,,,,,,,,,,,,,,,,&***%==;;;;;;;;;;;;;;;;;;;;;;;;;;;;;;;;;;;oo,,,",
",,,,,,,,,,,,,,,,,,,,,,,,,,,,,,,,,,,,,,,,,,,,,,,&&&***%%=;;;;;;;;;;;;;;;;;;;;;;;;;;;;;;;;;;;;=,,,",
",,,,,,,,,,,,,,,,,,,,,,,,,,,,,,,,,,,,,,,,,,,,,,&&******%==;;;;;;;;;;;;;;;;;;;;;;;;;;;;--;;;;==,,,",
",,,,,,,,,,,,,,,,,,,,,,,,,,,,,,,,,,,,,,,,,,,,,&&********%=;;;;;;;;;;;;;;;;;;;;;;;;;;;;----;==,,,,",
",,,,,,,,,,,,,,,,,,,,,,,,,,,,,,,,,,,,,,,,,,,,,&*********%%=;;;;;;;;;;;;;;;;;;;;;;;;;;;;;---,,,,,,",
",,,,,,,,,,,,,,,,,,,,,,,,,,,,,,,,,,,,,,,,,,,&&***********%%=;;;;;;;;;;;;;;;;;;;;;;;;;===,,,,,,,,,",
",,,,,,,,,,,,,,,,,,,,,,,,,,,,,,,,,,,,,,,,,,&&*************%==;;;;-;;;;;;;;;;;;;;;;;===,,,,,,,,,,,",
",,,,,,,,,,,,,,,,,,,,,,,,,,,,,,,,,,,,,,,,&&***************%%==;;;--;;;;;;;;;;;;;;===,,,,,,,,,,,,,",
",,,,,,,,,,,,,,,,,,,,,,,,,,,,,,,,,,,,,,,&&*****************%%==----;;;;;;;;;;;===,,,,,,,,,,,,,,,,",
",,,,,,,,,,,,,,,,,,,,,,,,,,,,,,,,,,,,,&&&*******************%%--=---;;;;;;;;;==,,,,,,,,,,,,,,,,,,",
",,,,,,,,,,,,,,,,,,,,,,,,,,,,,,,,,,,,&&**********************%%%%============,,,,,,,,,,,,,,,,,,,,",
",,,,,,,,,,,,,,,,,,,,,,,,,,,,,,,,,,,&&*******************;*****%%%%%%%%%%%=,,,,,,,,,,,,,,,,,,,,,,",
",,,,,,,,,,,,,,,,,,,,,,,,,,,,,,,,,,&&*******************;;**************&&=,,,,,,,,,,,,,,,,,,,,,,",
",,,,,,,,,,,,,,,,,,,,,,,,,,,,,,,,&&*********************;;;*************&%=,,,,,,,,,,,,,,,,,,,,,,",
",,,,,,,,,,,,,,,,,,,,,,,,,,,,,,,&&*********************;;;;;***********&&==,,,,,,,,,,,,,,,,,,,,,,",
",,,,,,,,,,,,,,,,,,,,,,,,,,,,,,&&********************;*;;;;;*********;&&==,,,,,,,,,,,,,,,,,,,,,,,",
",,,,,,,,,,,,,,,,,,,,,,,,,,,,&&*********************;;*;;;;;**;***;*;&&;==,,,,,,,,,,,,,,,,,,,,,,,",
",,,,,,,,,,,,,,,,,,,,,,,,,,&&**********************;;;;;;;;;;;;*****;&&;==,,,,,,,,,,,,,,,,,,,,,,,",
",,,,,,,,,,,,,,,,,,,,,,,,,&&********************;;;;;;;;;;;;;;;***;;&&;;==,,,,,,,,,,,,,,,,,,,,,,,",
",,,,,,,,,,,,,,,,,,,,,,,&&**********************;;;;;;;;;;;;;;;**;;;&&;;==,,,,,,,,,,,,,,,,,,,,,,,",
",,,,,,,,,,,,,,,,,,,,,,&&*******************;**;;;;;;;;;;;;;;;;**;;;&;;;=,,,,,,,,,,,,,,,,,,,,,,,,",
",,,,,,,,,,,,,,,,,,,,&&******************;*;;*;;;;;;;;;;;;;;;;;*;;;&&;;;=,,,,,,,,,,,,,,,,,,,,,,,,",
",,,,,,,,,,,,,,,,,,&&******************;;**;;;;;;;;;;;;;;;;;;;;;;;;&&;;==,,,,,,,,,,,,,,,,,,,,,,,,",
",,,,,,,,,,,,,,,,&&*******************;;;*;;;;;;;;;;;;;;;;;;;;;;;;;&&;;==,,,,,,,,,,,,,,,,,,,,,,,,",
",,,,,,,,,,,,,,&&*********************;;;;;;;;;;;;;;;;;;;;;;;;;;;;&&;;;==,,,,,,,,,,,,,,,,,,,,,,,,",
",,,,,,,>>,,,&&&*********************;;;;;;;;;;;;;;;;;;;;;;;;;;;;;&&;;;==,,,,,,,,,,,,,,,,,,,,,,,,",
",,,,,,,:::>&&****************;;***;;;;;;;;;;;;;;;;;;;;;;;;;;;;;;&&;;;;==,,,,,,,,,,,,,,,,,,,,,,,,",
",,,,>>:,,,&&****************;;***;;;;;;;;;;;;;;;;;;;;;;;;;;;;;;&&&;;;;=,,,,,,,,,,,,,,,,,,,,,,,,,",
",,,>,::,:&&*********;;*;**;;;;;;;;;;;;;;;;;;;;;;;;;;;;;;;;;;;;;&&;;;;;=,:::,,,,,,,,,,,,,,,,,,,,,",
",,>,,,,,:&********;;;****;;;;;;;;;;;;;;;;;;;;;;;;;;;;;;;;;;;;;;&&;;;;;=,>>>:,,,,,,,,,,,,,,,,,,,,",
",,:>,,,>:********;;;***;;;;;;;;;;;;;;;;;;;;;;;;;;;;;;;;;;;;;;;&&;;;;;;=,,>,::,,,,,,,,,,,,,,,,,,,",
",,:,,,,>::*****;;;;;**;;;;;;;;;;;;;;;;;;;;;;;;;;;;;;;;;;;;;;;&&&;;;;;==,,,,>:,,,,,,,,,,,,,,,,,,,",
",,::,,,>>:::*;;;;;;;;;;;;;;;;;;;;;;;;;;;;;;;;;;;;;;;;;;;;;;;;&&;;;;;;=,:,,,>>:,,,,,,,,,,,,,,,,,,",
",,,:,,,,>>,,:::::;;;;;;;;;;;;;;;;;;;;;;;;;;;;;;;;;;;;;;;;;;;;;&;;;;;;::,,,,,>>,,,,,,,,,,,,,,,,,,",
",,,,:,,,,,,,,,,,>>>::::::;;;::,,:::::::::::::>>>>>;;;;;;;;;;;;;;;:::::,,,,,,,,,,,,,,,,,,,,,,,,,,",
",,,,::,,,,,,,,,,,,,>>>>,,,,,,,,>>>>>,,,,,,,,,:::,,>>,>>>>>>>:::::>>>,,,,,,,,,,,,,,,,,,,,,,,,,,,,",
",,,,,,::,,,,,,,,,,,,,,,,,,,,,,,,,,,,,,,,,,,,,,,,,,,,,,,,,,,,,,,>>>,,,,,,>>>,,,,,,,,,,,,,,,,,,,,,",
",,,,,,,,:,,,,,:,>>,,,,,,,,,,,,,,,,,,,,,,,,,,,,,,,,,,,,,,,,,,>>>>,,>>>>>>>,,,,,,,,,,,,,,,,,,,,,,,",
",,,,,,,,,,,,,,,:::>>>>,,,,,,,,,,,,,,::::,,,>>>,::::::::,,,,,,,,,,,,,,,,,,,:,,,,,,,,,,,,,,,,,,,,,",
",,,,,,,,,,,,,,,,,,::::::::::::::::::,,,,,,,,,,>>>>>>,,,,,,,,,,,,,,,,,,,,,::,,,,,,,,,,,,,,,,,,,,,",
",,,,,,,,,,,,,,,,,,,,,,>>>>>>>>>>>>>>,,,,,,,,,,,,,,,,,,,,,,:,>>,,,,,,,,,,::,,,,,,,,,,,,,,,,,,,,,,",
",,,,,,,,,,,,,,,,,,,,,,,,,,,,,,,,,,,,,,,,,,,,,,,,,,,,,,,:::>>>,,,,,,,,::>>,,,,,,,,,,,,,,,,,,,,,,,",
",,,,,,,,,,,,,,,,,,,,,,,,,,,,,,,,,,,,,,:::::::::::::::::,,>>,,,,,,:::>>>,,,,,,,,,,,,,,,,,,,,,,,,,",
",,,,,,,,,,,,,,,,,,,,,,,,,,,,,,,,,,,,,,>>>>>>>>>>>>>>>>>,,,,,,,,,,>>>,,,,,,,,,,,,,,,,,,,,,,,,,,,,",
",,,,,,,,,,,,,,,,,,,,,,,,,,,,,,,,,,,,,,,,,,,,,,,,,,,,,,,,,,,,,,,,,,,,,,,,,,,,,,,,,,,,,,,,,,,,,,,,",
",,,,,,,,,,,,,,,,,,,,,,,,,,,,,,,,,,,,,,,,,,,,,,,,,,,,,,,,,,,,,,,,,,,,,,,,,,,,,,,,,,,,,,,,,,,,,,,,",
",,,,,,,,,,,,,,,,,,,,,,,,,,,,,,,,,,,,,,,,,,,,,,,,,,,,,,,,,,,,,,,,,,,,,,,,,,,,,,,,,,,,,,,,,,,,,,,,",
",,,,,,,,,,,,,,,,,,,,,,,,,,,,,,,,,,,,,,,,,,,,,,,,,,,,,,,,,,,,,,,,,,,,,,,,,,,,,,,,,,,,,,,,,,,,,,,,",
",,,,,,,,,,,,,,,,,,,,,,,,,,,,,,,,,,,,,,,,,,,,,,,,,,,,,,,,,,,,,,,,,,,,,,,,,,,,,,,,,,,,,,,,,,,,,,,,",
",,,,,,,,,,,,,,,,,,,,,,,,,,,,,,,,,,,,,,,,,,,,,,,,,,,,,,,,,,,,,,,,,,,,,,,,,,,,,,,,,,,,,,,,,,,,,,,,",
",,,,,,,,,,,,,,,,,,,,,,,,,,,,,,,,,,,,,,,,,,,,,,,,,,,,,,,,,,,,,,,,,,,,,,,,,,,,,,,,,,,,,,,,,,,,,,,,",
",,,,,,,,,,,,,,,,,,,,,,,,,,,,,,,,,,,,,,,,,,,,,,,,,,,,,,,,,,,,,,,,,,,,,,,,,,,,,,,,,,,,,,,,,,,,,,,,",
",,,,,,,,,,,,,,,,,,,,,,,,,,,,,,,,,,,,,,,,,,,,,,,,,,,,,,,,,,,,,,,,,,,,,,,,,,,,,,,,,,,,,,,,,,,,,,,,",
",,,,,,,,,,,,,,,,,,,,,,,,,,,,,,,,,,,,,,,,,,,,,,,,,,,,,,,,,,,,,,,,,,,,,,,,,,,,,,,,,,,,,,,,,,,,,,,,",
",,,,,,,,,,,,,,,,,,,,,,,,,,,,,,,,,,,,,,,,,,,,,,,,,,,,,,,,,,,,,,,,,,,,,,,,,,,,,,,,,,,,,,,,,,,,,,,,",
",,,,,,,,,,,,,,,,,,,,,,,,,,,,,,,,,,,,,,,,,,,,,,,,,,,,,,,,,,,,,,,,,,,,,,,,,,,,,,,,,,,,,,,,,,,,,,,,",
",,,,,,,,,,,,,,,,,,,,,,,,,,,,,,,,,,,,,,,,,,,,,,,,,,,,,,,,,,,,,,,,,,,,,,,,,,,,,,,,,,,,,,,,,,,,,,,,"
};
