/* XPM */
static char *result[] = {
/* columns rows colors chars-per-pixel */
"96 96 45 1 ",
"  c black",
". c gray1",
"X c #040404",
"o c #090B06",
"O c #0B0B0B",
"+ c #131313",
"@ c gray11",
"# c #172139",
"$ c gray14",
"% c gray15",
"& c #272727",
"* c #353535",
"= c gray22",
"- c #7B270F",
"; c #38630B",
": c #3F522A",
"> c #4B4B4B",
", c #805B2D",
"< c #82694E",
"1 c #A37C55",
"2 c #0F8837",
"3 c #669B09",
"4 c #C7C300",
"5 c #BC8D5C",
"6 c #3C708C",
"7 c #0090D1",
"8 c #97918A",
"9 c #909090",
"0 c #979797",
"q c #989594",
"w c #939598",
"e c #9B9B9A",
"r c #9B9B9B",
"t c #9D9D9D",
"y c #9F9F9F",
"u c #A19C93",
"i c #AFA99D",
"p c #A9A9A9",
"a c #B7B7B7",
"s c #C2BBAD",
"d c #CACACA",
"f c #CECECE",
"g c #D8D3D2",
"h c #D6D7D9",
"j c None",
/* pixels */
"jjjjjjjjjjjjjjjjjjjjjjjjjjjjjjjjjjjjjjjjjjjjjjjjjjjjjjjjjjjjjjjjjjjjjjjjjjjjjjjjjjjjjjjjjjjjjjjj",
"jjjjjjjjjjjjjjjjjjjjjjjjjjjjjjjjjjjjjjjjjjjjjjjjjjjjjjjjjjjjjjjjjjjjjjjjjjjjjjjjjjjjjjjjjjjjjjjj",
"jjjjjjjjjjjjjjjjjjjjjjjjjjjjjjjjjjjjjjjjjjjjjjjjjjjjjjjjjjjjjjjjjjjjjjjjjjjjjjjjjjjjjjjjjjjjjjjj",
"jjjjjjjjjjjjjjjjjjjjjjjjjjjjjjjjjjjjjjjjjjjjjjjjjjjjjjjjjjjjjjjjjjjjjjjjjjjjjjjjjjjjjjjjjjjjjjjj",
"jjjjjjjjjjjjjjjjjjjjjjjjjjjjjjjjjjjjjjjjjjjjjjjjjjjjjjjjjjjjjjjjjjjjjjjjjjjjjjjjjjjjjjjjjjjjjjjj",
"jjjjjjjjjjjjjjjjjjjjjjjjjjjjjjjjjjjjjjjjjjjjjjjjjjjjjjjjjjjjjjjjjjjjjjjjjjjjjjjjjjjjjjjjjjjjjjjj",
"jjjjjjjjjjjjjjjjjjjjjjjjjjjjjjjjjjjjjjjjjjjjjjjjjjjjjjjjjjjjjjjjjjjjjjjjjjjjjjjjjjjjjjjjjjjjjjjj",
"jjjjjjjjjjjjjjjjjjjjjjjjjjjjjjjjjjjjjjjjjjjjjjjjjjjjjjjjjjjjjjjjjjjjjjjjjjjjjjjjjjjjjjjjjjjjjjjj",
"jjjjjjjjjjjjjjjjjjjjjjjjjjjjjjjjjjjjjjjjjjjjjjjjjjjjjjjjjjjjjjjjjjjjjjjjjjjjjjjjjjjjjjjjjjjjjjjj",
"jjjjjjjjjjjjjjjjjjjjjjjjjjjjjjjjjjjjjjjjjjjjjjjjjjjjjjjjjjjjjjjjjjjjjjjjjjjjjjjjjjjjjjjjjjjjjjjj",
"jjjjjjjjjjjjjjjjjjjjjjjjjjjjjjjjjjjjjjjjjjjjjjjjjjjjjjjjjjjjjjjjjjjjjjjjjjjjjjjjjjjjjjjjjjjjjjjj",
"jjjjjjjjjjjjjjjjjjjjjjjjjjjjjjjjjjjjjjjjjjjjjjjjjjjjjjjjjjjjjjjjjjjjjjjjjjjjjjjjjjjjjjjjjjjjjjjj",
"jjjjjjjjjjjjjjjjjjjjjjjjjjjjjjjjjjjjjjjXXXXXXXXXXXXXXXXXXXXXXXXXXXjjjjjjjjjjjjjjjjjjjjjjjjjjjjjj",
"jjjjjjjjjjjjjjjjjjjjjjjjjjjjjjjjjjjjjjjX%%%%%%%%%%%%%%%%%%%%%%%%%Xjjjjjjjjjjjjjjjjjjjjjjjjjjjjjj",
"jjjjjjjjjjjjjjjjjjjjjjjjjjjjjjjjjjjjjjjX%==%%%=%XXXXXXXXXXXXXXXXXXjjjjjjjjjjjjjjjjjjjjjjjjjjjjjj",
"jjjjjjjjjjjjjjjjjjjjjjjjjjjjjjjjjjjjjjjX%%%%%%%XXXXXXXXXXXXXXXXXXXjjjjjjjjjjjjjjjjjjjjjjjjjjjjjj",
"jjjjjjjjjjjjjjjjjjjjjjjjjjjjjjjjjjjjjjjX%%%%%%XXXXXXXXXXXXXXXXXXXXjjjjjjjjjjjjjjjjjjjjjjjjjjjjjj",
"jjjjjjjjjjjjjjjjjjjjjjjjjjjjjjjjjjjjjjjX%%%%=XXXXXXXXXXXXXXXXXXXXXjjjjjjjjjjjjjjjjjjjjjjjjjjjjjj",
"jjjjjjjjjjjjjjjjjjjjjjjjjjjjjjjjjjjjjjjX%%%XXXXXXXXXXXXXXXXXXXXXXXjjjjjjjjjjjjjjjjjjjjjjjjjjjjjj",
"jjjjjjj,,,,,,,,,,,,jjjjjjjjjjjjjjjjjjjjX%%XXXXXXXXXXXXXXXXXXXXXXXXjjjjjjjjjjjjjjjjjjjjjjjjjjjjjj",
"jjjjjjj,777-774777,jjjjjjjjjjjjOOOOjjjjX%%=XXXXXXXXXXXXXXXXXXXXXXXjjjjOOOOjjjjjjjjjjjjjjjjjjjjjj",
"jjjjjjj,777-;34777,jjjjjjjjjjjO%%%%OjjjX%XXXXXXXXXXXXXXXXXXXXXXXXXjjjO%%%%Ojjjjjjjjjjjjjjjjjjjjj",
"jjjdddd,774-;34-77,dddddddddddO%>>%OdddX%XXXXXXXXXXXXXXXXXXXXXXXXXdddO%>>%Odddddddddddddddjjjjjj",
"jjsdddd,224-;34-22,dddddddddddO%>>%OdddXX=XXXXXXXXXXXXXXXXXXXXXXXXdddO%>>%Oddddddddddddddddjjjjj",
"jisdddd,224-;34-22,0ddddddddddO%%%%O00dXXXXXXXXXXXXXXXXXXXXXXXXXXXdddO%%%%O00dddddddddddddddjjjj",
"jisdddd,224-;34-22,00dddddddddO%%%%O000XXXXXXXXXXXXXXXXXXXXXXXXXXXdddO%%%%O000ddddddddddddddgjjj",
"jisdddd,224-;34-22,00dddddddddO%>>%O000XXXXXXXXXXXXXXXXXXXXXXXXXXX00dO%>>%O000ddddddddddddddgjjj",
"jisdddd,,,,,,,,,,,,00dddddddddO%>>%O000ddddd$$d@@@@   @@@@00$00000000O%>>%O000ddddddddddddddgjjj",
"jisddddddd00000000000dddddddddO%%%%O000ddddd$dd@@@@   @@@@00$$0000000O%%%%O000ddddddddddddddgjjj",
"jisdddddddddd0000000dddddddddddOOOO0000dddd$$dd@@@@   @@@@000$00000000OOOO0000ddddddddddddddgjjj",
"jisddddddddddddddddddddddddddddddd00000dddd$dddd@@@@@@@@@0000$$000000000000000ddddddddddddddgjjj",
"jisdddddddddddddddddddddddddddddddd000ddddd$dddd@@@@@@@@@00000$$0000000000000dddddddddddddddgjjj",
"jisdddddddddddddddddddddddddddddddddddddddd$ddddd@@@@@@@0000000$$$0000000dddddddddddddddddddgjjj",
"jisdddddddddddddddddddddddddddddddddddddddd$dddddddd0000000000000$$$00000dddddddddddddddddddgjjj",
"jisdddddddddddddddddddddddddddddddddddddddd$$ddddddd000000000000000$$$000dddddddddddddddddddgjjj",
"jisddddddddddddddddddddddddddddddddddddddddd$dddddddd0000000000000000$$0ddddddddddddddddddddgjjj",
"jisddddddddddddddddddddddddddddddddddddddddd$$dddddddddddddddddd000000$$$dddddddddddddddddddgjjj",
"jisdddddddddddddddddddddde#######dddddddddddd$dddddddddddddddddddddddddd$$ddddddddddddddddddg6jj",
"jisdddddddddddddddddddddde#######dddddddddddd$$dddddddddddddddddddddooooo$$oooooodddddddddddg66j",
"jisdddddddddddddddddddddde#######00ddddddd+++++++++++++++++++++ddddo::::::$::::::oddddddddddg66j",
"jisdddddddddddddddddddddeee######00dddddd++**+$=$+=&=+=+==$=+=++dddo:::::...:::::o0dddddddddg66j",
"jisdddddddddddddddddddddde#######00dddddd+$++*=+&==*+$==$+=+$=$+00do::::.=.=.::::o0dddddddddg66j",
"jisdddddddddddddddddddddde#######00dddddd+++$*&==$$&*=+*+==&=+=+00do::::.=.=.::::o0dddddddddg66j",
"jisdddddddddddddddddddddde#######00dddddd+=&*$*+$=+*&&+&=+=$&=&+00do::::.===.::::o0dddddddddg66j",
"jisdddddddddddddddddddddeee######00dddddd++=++=+=++==+$=+=$=++=+00do::::.===.::::o0dddddddddg66j",
"jisdddddddddddddddddddddde#######00dddddd+$==+==&=&&+==&$=&==$++00do:::::...:::::o0dddddddddg66j",
"jisdddddddddddddddddddddde#######00dddddd+++++++++++++++++++++++00do:::::::::::::o0dddddddddg66j",
"jisdddddddddddddddddddddde#######00ddddddddd0000000000000000000000ddooooooooooooo00dddddddddg66j",
"jisdddddddddddddddddddddddd00000000ddddddddd0000000000000000000000dddd000000000000ddddddddddg66j",
"jissddddddddddddddddddddddd00000000dddddddddddddddddddddddddddddddddddddddddddddddddddddddddg66j",
"jjissddddddddddddddddddddddddddddddddddddddddddddddddddddddddddddddddddddddddddddddddddddddg666j",
"jjiisssssssssssssssssssssssssssssssssssssssssssssssssssssssssssssssssssssssssssssssssssssii6666j",
"jjj1iiiiiiiiiiiiiiiiiiiiiiiiiiiiiiiiiiiiiiiiiiiiiiiiiiiiiiiiiiiiiiiiiiiiiiiiiiiiiiiiiiiiiy96666j",
"jjj15uuuuuuuuuuuuuuuuuuuuuuuuuuuuuuuuuuuuuuuuuuuuuuuuuuuuuuuuuuuuuuuuuuuuuuuuuuuuuuuuuuuwy96666j",
"jjj15fffffffffffffffffffff<88888888888888888888888888888888888888888888888888888888888<wwy96666j",
"jjj15hhhhhhhhhhhhhhhhhhhhh<<8888866666666666666666666666666666615hhhhhhhhhhhhhhhhhhhhh<<wy96666j",
"jjj15ffffffffffaaaaaaaaaaa<<wyy9q66666666666666666666666666666615ffffffffffaaaaaaaaaaa<<wy96666j",
"jjj15fffffffffttpaaaaaaaaa<<wyy9q66666666666666666666666666666615fffffffffrrpaaaaaaaaa<<wy96666j",
"jjj15fffffffffappaaaaaaaaa<<wyy9q66666666666666666666666666666615fffffffffappaaaaaaaaa<<wy96666j",
"jjj15ffffffffffaaaaaaaaaaa<<wyy9q66666666666666666666666666666615ffffffffffaaaaaaaaaaa<<wy96666j",
"jjj15ffffffffffaaaaaaaaaaa<<wyy9q66666666666666666666666666666615ffffffffffaaaaaaaaaaa<<wy96666j",
"jjj15aaaaaaaaaappppppppppp<<wyy9q66666666666666666666666666666615aaaaaaaaaappppppppppp<<wy96666j",
"jjj15rrrrrrrrrrrrrrrrrrrrr<<wyy9q66666666666666666666666666666615rrrrrrrrrrrrrrrrrrrrr<<wy96666j",
"jjj15aaaaaaaaaappppppppppp<<wyy9q66666666666666666666666666666615aaaaaaaaaappppppppppp<<wy96666j",
"jjj15ffffffffffaaaaaaaaaaa<<wyy9q66666666666666666666666666666615ffffffffffaaaaaaaaaaa<<wy96666j",
"jjj15hhhhhhhhhhhhhhhhhhhhh<<wyy9q66666666666666666666666666666615hhhhhhhhhhhhhhhhhhhhh<<wy96666j",
"jjj15ffffffffffaaaaaaaaaaa<<wyy9q66666666666666666666666666666615ffffffffffaaaaaaaaaaa<<wy96666j",
"jjj15fffffffffrrpaaaaaaaaa<<wyy9q66666666666666666666666666666615fffffffffrrpaaaaaaaaa<<wy96666j",
"jjj15fffffffffappaaaaaaaaa<<wyy9q6666666jjjjjjjjjjjjjjjjjjjjjjj15fffffffffappaaaaaaaaa<<wy966jjj",
"jjj15ffffffffffaaaaaaaaaaa<<wyy9q6666666jjjjjjjjjjjjjjjjjjjjjjj15ffffffffffaaaaaaaaaaa<<wy966jjj",
"jjj15ffffffffffaaaaaaaaaaa<<wyy9q666666jjjjjjjjjjjjjjjjjjjjjjjj15ffffffffffaaaaaaaaaaa<<wy966jjj",
"jjj15aaaaaaaaaappppppppppp<<wyy9q666666jjjjjjjjjjjjjjjjjjjjjjjj15aaaaaaaaaappppppppppp<<wy966jjj",
"jjj15rrrrrrrrrrrrrrrrrrrrr<<wyy9q66666jjjjjjjjjjjjjjjjjjjjjjjjj15rrrrrrrrrrrrrrrrrrrrr<<wy966jjj",
"jjj15aaaaaaaaaappppppppppp<<wyy9q66666jjjjjjjjjjjjjjjjjjjjjjjjj15aaaaaaaaaappppppppppp<<wy966jjj",
"jjj15hhhhhhhhhhhhhhhhhhhhh<<wyy9q6666jjjjjjjjjjjjjjjjjjjjjjjjjj15hhhhhhhhhhhhhhhhhhhhh<<wy966jjj",
"jjj15ffffffffffaaaaaaaaaaa<<wyy9q6666jjjjjjjjjjjjjjjjjjjjjjjjjj15ffffffffffaaaaaaaaaaa<<wy966jjj",
"jjj15fffffffffttpaaaaaaaaa<<wyy9q666jjjjjjjjjjjjjjjjjjjjjjjjjjj15fffffffffrrpaaaaaaaaa<<wy966jjj",
"jjj15fffffffffappaaaaaaaaa<<wyy9q666jjjjjjjjjjjjjjjjjjjjjjjjjjj15fffffffffappaaaaaaaaa<<wy966jjj",
"jjj15ffffffffffaaaaaaaaaaa<<wyy9q66jjjjjjjjjjjjjjjjjjjjjjjjjjjj15ffffffffffaaaaaaaaaaa<<wy966jjj",
"jjj15ffffffffffaaaaaaaaaaa<<wyy9q66jjjjjjjjjjjjjjjjjjjjjjjjjjjj15ffffffffffaaaaaaaaaaa<<wy96jjjj",
"jjj15aaaaaaaaaappppppppppp<<qqqqq6jjjjjjjjjjjjjjjjjjjjjjjjjjjjj15aaaaaaaaaappppppppppp<<wy96jjjj",
"jjjj555555551111111<<<<<<<<qqq6666jjjjjjjjjjjjjjjjjjjjjjjjjjjjjj555555551111111<<<<<<<<ww666jjjj",
"jjjjjjj66666666666666666666666666jjjjjjjjjjjjjjjjjjjjjjjjjjjjjjjjjj666666666666666666666666jjjjj",
"jjjjjjjjjj66666666666666666666666jjjjjjjjjjjjjjjjjjjjjjjjjjjjjjjjjjjjj666666666666666666666jjjjj",
"jjjjjjjjjjjjjjjjjjjjjjjjjjjjjjjjjjjjjjjjjjjjjjjjjjjjjjjjjjjjjjjjjjjjjjjjjjjjjjjjjjjjjjjjjjjjjjjj",
"jjjjjjjjjjjjjjjjjjjjjjjjjjjjjjjjjjjjjjjjjjjjjjjjjjjjjjjjjjjjjjjjjjjjjjjjjjjjjjjjjjjjjjjjjjjjjjjj",
"jjjjjjjjjjjjjjjjjjjjjjjjjjjjjjjjjjjjjjjjjjjjjjjjjjjjjjjjjjjjjjjjjjjjjjjjjjjjjjjjjjjjjjjjjjjjjjjj",
"jjjjjjjjjjjjjjjjjjjjjjjjjjjjjjjjjjjjjjjjjjjjjjjjjjjjjjjjjjjjjjjjjjjjjjjjjjjjjjjjjjjjjjjjjjjjjjjj",
"jjjjjjjjjjjjjjjjjjjjjjjjjjjjjjjjjjjjjjjjjjjjjjjjjjjjjjjjjjjjjjjjjjjjjjjjjjjjjjjjjjjjjjjjjjjjjjjj",
"jjjjjjjjjjjjjjjjjjjjjjjjjjjjjjjjjjjjjjjjjjjjjjjjjjjjjjjjjjjjjjjjjjjjjjjjjjjjjjjjjjjjjjjjjjjjjjjj",
"jjjjjjjjjjjjjjjjjjjjjjjjjjjjjjjjjjjjjjjjjjjjjjjjjjjjjjjjjjjjjjjjjjjjjjjjjjjjjjjjjjjjjjjjjjjjjjjj",
"jjjjjjjjjjjjjjjjjjjjjjjjjjjjjjjjjjjjjjjjjjjjjjjjjjjjjjjjjjjjjjjjjjjjjjjjjjjjjjjjjjjjjjjjjjjjjjjj",
"jjjjjjjjjjjjjjjjjjjjjjjjjjjjjjjjjjjjjjjjjjjjjjjjjjjjjjjjjjjjjjjjjjjjjjjjjjjjjjjjjjjjjjjjjjjjjjjj",
"jjjjjjjjjjjjjjjjjjjjjjjjjjjjjjjjjjjjjjjjjjjjjjjjjjjjjjjjjjjjjjjjjjjjjjjjjjjjjjjjjjjjjjjjjjjjjjjj",
"jjjjjjjjjjjjjjjjjjjjjjjjjjjjjjjjjjjjjjjjjjjjjjjjjjjjjjjjjjjjjjjjjjjjjjjjjjjjjjjjjjjjjjjjjjjjjjjj",
"jjjjjjjjjjjjjjjjjjjjjjjjjjjjjjjjjjjjjjjjjjjjjjjjjjjjjjjjjjjjjjjjjjjjjjjjjjjjjjjjjjjjjjjjjjjjjjjj"
};
