/* XPM */
static char *result[] = {
/* columns rows colors chars-per-pixel */
"96 96 43 1 ",
"  c black",
". c gray1",
"X c #040404",
"o c #090B06",
"O c #0B0B0B",
"+ c #131313",
"@ c gray11",
"# c #172139",
"$ c gray14",
"% c gray15",
"& c #272727",
"* c #353535",
"= c gray22",
"- c #7B270F",
"; c #38630B",
": c #3F522A",
"> c #0D415F",
", c #4B4B4B",
"< c #805B2D",
"1 c #82694E",
"2 c #A37C55",
"3 c #0F8837",
"4 c #C7C300",
"5 c #BC8D5C",
"6 c #0090D1",
"7 c #97918A",
"8 c #909090",
"9 c #979797",
"0 c #989594",
"q c #939598",
"w c #9B9B9A",
"e c #9B9B9B",
"r c #9F9F9F",
"t c #A19C93",
"y c #AFA99D",
"u c #A9A9A9",
"i c #B7B7B7",
"p c #C2BBAD",
"a c #CACACA",
"s c #CECECE",
"d c #D8D3D2",
"f c #D6D7D9",
"g c None",
/* pixels */
"aaaaaaaaaaaaaaaaaaaaaaaaaaaaaaaaaaaaaaaaaaaaaaaaaaaaaaaaaaaaaaaaaaaaaaaaaaaaaaaaaaaaaaaaaaaagggg",
"aaaaaaaaaaaaaaaaaaaaaaaaaaaaaaaaaaaaaaaaaaaaaaaaaaaaaaaaaaaaaaaaaaaaaaaaaaaaaaaaaaaaaaaaaaaa>ggg",
"aaaaaaaaaaaaaaaaaaaaaaaaaaaaaaaaaaaaaaaaaaaaaaaaaaaaaaaaaaaaaaaaaaaaaaaaaaaaaaaaaaaaaaaaaaaa>>gg",
"aaaaaaaaaaaaaaaaaaaaaaaaaaaaaaaaaaaaaaaaaaaaaaaaaaaaaaaaaaaaaaaaaaaaaaaaaaaaaaaaaaaaaaaaaaaa>>>g",
"aaaaaaaaaaaaaaaaaaaaaaaaaaaaaaaaaaaaaaaaaaaaaaaaaaaaaaaaaaaaaaaaaaaaaaaaaaaaaaaaaaaaaaaaaaaa>>>>",
"aaaaaaaaaaaaaaaaaaaaaaaaaaaaaaaaaaaaaaaaaaaaaaaaaaaaaaaaaaaaaaaaaaaaaaaaaaaaaaaaaaaaaaaaaaaa>>>>",
"aaaaaa>>>>>>>>>>>>>>>>>>>>>>>>>>>>>>>>>>>>>>>>>>>>>>>>>>>>>>>>>>>>>>>>>>>>>>>>>>>>>>>>aaaaaa>>>>",
"aaaaaa>>>>>>>>>>>>>>>>>>>>>>>>>>>>>>>>>>>>>>>>>>>>>>>>>>>>>>>>>>>>>>>>>>>>>>>>>>>>>>>>aaaaaa>>>>",
"aaaaaa>>>>>>>>>>>>>>>>>>>>>>>>>>>>>>>>>>>>>>>>>>>>>>>>>>>>>>>>>>>>>>>>>>>>>>>>>>>>>>>>aaaaaa>>>>",
"aaaaaa>>>>>>>>>>>>>>>>>>>>>>>>>>>>>>>>>>>>>>>>>>>>>>>>>>>>>>>>>>>>>>>>>>>>>>>>>>>>>>>>aaaaaa>>>>",
"aaaaaa>>>>ggggggggggggggggggggggggggggggggggggggggggggggggggggggggggggggggggggggggggggaaaaaa>>>>",
"aaaaaa>>>>ggggggggggggggggggggggggggggggggggggggggggggggggggggggggggggggggggggggggggggaaaaaa>>>>",
"aaaaaa>>>>ggggggggggggggggggggggggggggggggggggggggggggggggggggggggggggggggggggggggggggaaaaaa>>>>",
"aaaaaa>>>>ggggggggggggggggggggggggggggggggggggggggggggggggggggggggggggggggggggggggggggaaaaaa>>>>",
"aaaaaa>>>>ggggggggggggggggggggggggggggggggggggggggggggggggggggggggggggggggggggggggggggaaaaaa>>>>",
"aaaaaa>>>>ggggggggggggggggggggggggggggggggggggggggggggggggggggggggggggggggggggggggggggaaaaaa>>>>",
"aaaaaa>>>>ggggggggggggggggggggggggggggggggggggggggggggggggggggggggggggggggggggggggggggaaaaaa>>>>",
"aaaaaa>>>>ggggggggggggggggggggggggggggggggggggggggggggggggggggggggggggggggggggggggggggaaaaaa>>>>",
"aaaaaa>>>>ggggggggggggggggggggggggggggggggggggggggggggggggggggggggggggggggggggggggggggaaaaaa>>>>",
"aaaaaa>>>>ggggggggggggggggggggggggggggggggggggggggggggggggggggggggggggggggggggggggggggaaaaaa>>>>",
"aaaaaa>>>>ggggggggggggggggggggggggggggggggggggggggggggggggggggggggggggggggggggggggggggaaaaaa>>>>",
"aaaaaa>>>>ggggggggggggggggggggggggggggggggggggggggggggggggggggggggggggggggggggggggggggaaaaaa>>>>",
"aaaaaa>>>>ggggggggggggggggggggggggggggggggggggggggggggggggggggggggggggggggggggggggggggaaaaaa>>>>",
"aaaaaa>>>>ggggggggggggggggggggggggggggggggggggggggggggggggggggggggggggggggggggggggggggaaaaaa>>>>",
"aaaaaa>>>>ggggggggggggggggggggggggggggggggggggggggggggggggggggggggggggggggggggggggggggaaaaaa>>>>",
"aaaaaa>>>>ggggggggggggggggggggggggggggggggggggggggggggggggggggggggggggggggggggggggggggaaaaaa>>>>",
"aaaaaa>>>>ggggggggggggggggggggggggggggggggggggggggggggggggggggggggggggggggggggggggggggaaaaaa>>>>",
"aaaaaa>>>>ggggggggggggggggggggggggggggggXXXXXXXXXXXXXXXXggggggggggggggggggggggggggggggaaaaaa>>>>",
"aaaaaa>>>>ggggggggggggggggggggggggggggggX%%%%XXXXXXXXXXXggggggggggggggggggggggggggggggaaaaaa>>>>",
"aaaaaa>>>>ggggggggggggggggggggggggggggggX%%%XXXXXXXXXXXXggggggggggggggggggggggggggggggaaaaaa>>>>",
"aaaaaa>>>>ggggggggggggggggggggggggggggggX%%XXXXXXXXXXXXXggggggggggggggggggggggggggggggaaaaaa>>>>",
"aaaaaa>>>>gggggggggggg<<<<<<<gggggggggggX%XXXXXXXXXXXXXXggggggggggggggggggggggggggggggaaaaaa>>>>",
"aaaaaa>>>>ggggggggggaa<6-;4-<aaaaaaa,,OaX%XXXXXXXXXXXXXXaO%,%aaaaaaaagggggggggggggggggaaaaaa>>>>",
"aaaaaa>>>>ggggggggggaa<3-;4-<aaaaaaa,,OaXXXXXXXXXXXXXXXXaO%,%aaaaaaaaaggggggggggggggggaaaaaa>>>>",
"aaaaaa>>>>gggggggggyaa<3-;4-<9aaaaaa%%O9XXXXXXXXXXXXXXXXaO%%%99aaaaaaaadggggggggggggggaaaaaa>>>>",
"aaaaaa>>>>gggggggggyaa<3-;4-<9aaaaaa,,O9XXXXXXXXXXXXXXXX9O%,%99aaaaaaaadggggggggggggggaaaaaa>>>>",
"aaaaaa>>>>gggggggggyaaaaaa9999aaaaaaOO99aaa$a@@@ @@@999999OOO99aaaaaaaadggggggggggggggaaaaaa>>>>",
"aaaaaa>>>>gggggggggyaaaaaaaaaaaaaaaaaa99aaa$aa@@@@@99$999999999aaaaaaaadggggggggggggggaaaaaa>>>>",
"aaaaaa>>>>gggggggggyaaaaaaaaaaaaaaaaaaaaaaa$aa@@@@9999$$9999aaaaaaaaaaadggggggggggggggaaaaaa>>>>",
"aaaaaa>>>>gggggggggyaaaaaaaaaaaaaaaaaaaaaaa$aaaa99999999$999aaaaaaaaaaadggggggggggggggaaaaaa>>>>",
"aaaaaa>>>>gggggggggyaaaaaaaaaaaaaaaaaaaaaaaaaaaaaaaaaaa999$$aaaaaaaaaaadggggggggggggggaaaaaa>>>>",
"aaaaaa>>>>gggggggggyaaaaaaaaaaaaw####aaaaaaaaaaaaaaaaaaaaaaa$aaaaaaaaaadggggggggggggggaaaaaa>>>>",
"aaaaaa>>>>gggggggggyaaaaaaaaaaaaw####9aaaa++++++++++++aaa::::::::aaaaaad>gggggggggggggaaaaaa>>>>",
"aaaaaa>>>>gggggggggyaaaaaaaaaaaaww###9aaaa+*$=+==+===++aa:::.::::aaaaaad>>ggggggggggggaaaaaa>>>>",
"aaaaaa>>>>gggggggggyaaaaaaaaaaaaw####9aaaa=&*+=+&&=+$&+9a:::=.:::aaaaaad>>ggggggggggggaaaaaa>>>>",
"aaaaaa>>>>gggggggggyaaaaaaaaaaaaww###9aaaa+==+++==+===+9a:::=.:::aaaaaad>>ggggggggggggaaaaaa>>>>",
"aaaaaa>>>>gggggggggyaaaaaaaaaaaaw####9aaaa+++++++++++++9a::::::::aaaaaad>>ggggggggggggaaaaaa>>>>",
"aaaaaa>>>>gggggggggyaaaaaaaaaaaaw####9aaaaaa999999999999aooooooooaaaaaad>>ggggggggggggaaaaaa>>>>",
"aaaaaa>>>>ggggggggggpaaaaaaaaaaaaaaaaaaaaaaaaaaaaaaaaaaaaaaaaaaaaaaaaad>>>ggggggggggggaaaaaa>>>>",
"aaaaaa>>>>ggggggggggpppppppppppppppppppppppppppppppppppppppppppppppppy>>>>ggggggggggggaaaaaa>>>>",
"aaaaaa>>>>gggggggggg5tttttttttttttttttttttttttttttttttttttttttttttttt8>>>>ggggggggggggaaaaaa>>>>",
"aaaaaa>>>>gggggggggg5ssssssssssss17777777777777777777777777777777777q8>>>>ggggggggggggaaaaaa>>>>",
"aaaaaa>>>>gggggggggg5ssssssiiiiii1qr0>>>>>>>>>>>>>>>>>25sssssiiiiiii18>>>>ggggggggggggaaaaaa>>>>",
"aaaaaa>>>>gggggggggg5sssssiuiiiii1qr0>>>>>>>>>>>>>>>>>25sssssuiiiiii18>>>>ggggggggggggaaaaaa>>>>",
"aaaaaa>>>>gggggggggg5ssssssiiiiii1qr0>>>>>>>>>>>>>>>>>25sssssiiiiiii18>>>>ggggggggggggaaaaaa>>>>",
"aaaaaa>>>>gggggggggg5iiiiiiuuuuuu1qr0>>>>>>>>>>>>>>>>>25iiiiiuuuuuuu18>>>>ggggggggggggaaaaaa>>>>",
"aaaaaa>>>>gggggggggg5iiiiiiuuuuuu1qr0>>>>>>>>>>>>>>>>>25iiiiiuuuuuuu18>>>>ggggggggggggaaaaaa>>>>",
"aaaaaa>>>>gggggggggg5ssssssiiiiii1qr0>>>>>>>>>>>>>>>>>25sssssiiiiiii18>>>>ggggggggggggaaaaaa>>>>",
"aaaaaa>>>>gggggggggg5ssssseeiiiii1qr0>>>>>>>>>>>>>>>>>25sssssuiiiiii18>>>gggggggggggggaaaaaa>>>>",
"aaaaaa>>>>gggggggggg5sssssiuiiiii1qr0>>>>ggggggggggggg25sssssuiiiiii18>>ggggggggggggggaaaaaa>>>>",
"aaaaaa>>>>gggggggggg5ssssssiiiiii1qr0>>>gggggggggggggg25sssssiiiiiii18>>ggggggggggggggaaaaaa>>>>",
"aaaaaa>>>>gggggggggg5iiiiiiuuuuuu1qr0>>>gggggggggggggg25iiiiiuuuuuuu18>>ggggggggggggggaaaaaa>>>>",
"aaaaaa>>>>gggggggggg5ffffffffffff1qr0>>>gggggggggggggg25ffffffffffff18>>ggggggggggggggaaaaaa>>>>",
"aaaaaa>>>>gggggggggg5ssssssiiiiii1qr0>>>gggggggggggggg25sssssiiiiiii18>>ggggggggggggggaaaaaa>>>>",
"aaaaaa>>>>gggggggggg5sssssiuiiiii1qr0>>ggggggggggggggg25sssssuiiiiii18>>ggggggggggggggaaaaaa>>>>",
"aaaaaa>>>>gggggggggg5iiiiiiuuuuuu1000>gggggggggggggggg25iiiiiuuuuuuu18>gggggggggggggggaaaaaa>>>>",
"aaaaaa>>>>gggggggggg5555522221111100>>ggggggggggggggggg5555522221111q>>gggggggggggggggaaaaaa>>>>",
"aaaaaa>>>>gggggggggggg>>>>>>>>>>>>>>>gggggggggggggggggggg>>>>>>>>>>>>>ggggggggggggggggaaaaaa>>>>",
"aaaaaa>>>>ggggggggggggggggggggggggggggggggggggggggggggggggggggggggggggggggggggggggggggaaaaaa>>>>",
"aaaaaa>>>>ggggggggggggggggggggggggggggggggggggggggggggggggggggggggggggggggggggggggggggaaaaaa>>>>",
"aaaaaa>>>>ggggggggggggggggggggggggggggggggggggggggggggggggggggggggggggggggggggggggggggaaaaaa>>>>",
"aaaaaa>>>>ggggggggggggggggggggggggggggggggggggggggggggggggggggggggggggggggggggggggggggaaaaaa>>>>",
"aaaaaa>>>>ggggggggggggggggggggggggggggggggggggggggggggggggggggggggggggggggggggggggggggaaaaaa>>>>",
"aaaaaa>>>>ggggggggggggggggggggggggggggggggggggggggggggggggggggggggggggggggggggggggggggaaaaaa>>>>",
"aaaaaa>>>>ggggggggggggggggggggggggggggggggggggggggggggggggggggggggggggggggggggggggggggaaaaaa>>>>",
"aaaaaa>>>>ggggggggggggggggggggggggggggggggggggggggggggggggggggggggggggggggggggggggggggaaaaaa>>>>",
"aaaaaa>>>>ggggggggggggggggggggggggggggggggggggggggggggggggggggggggggggggggggggggggggggaaaaaa>>>>",
"aaaaaa>>>>ggggggggggggggggggggggggggggggggggggggggggggggggggggggggggggggggggggggggggggaaaaaa>>>>",
"aaaaaa>>>>ggggggggggggggggggggggggggggggggggggggggggggggggggggggggggggggggggggggggggggaaaaaa>>>>",
"aaaaaa>>>>ggggggggggggggggggggggggggggggggggggggggggggggggggggggggggggggggggggggggggggaaaaaa>>>>",
"aaaaaa>>>>ggggggggggggggggggggggggggggggggggggggggggggggggggggggggggggggggggggggggggggaaaaaa>>>>",
"aaaaaa>>>>ggggggggggggggggggggggggggggggggggggggggggggggggggggggggggggggggggggggggggggaaaaaa>>>>",
"aaaaaa>>>>ggggggggggggggggggggggggggggggggggggggggggggggggggggggggggggggggggggggggggggaaaaaa>>>>",
"aaaaaa>>>>ggggggggggggggggggggggggggggggggggggggggggggggggggggggggggggggggggggggggggggaaaaaa>>>>",
"aaaaaa>>>>ggggggggggggggggggggggggggggggggggggggggggggggggggggggggggggggggggggggggggggaaaaaa>>>>",
"aaaaaa>>>>ggggggggggggggggggggggggggggggggggggggggggggggggggggggggggggggggggggggggggggaaaaaa>>>>",
"aaaaaaaaaaaaaaaaaaaaaaaaaaaaaaaaaaaaaaaaaaaaaaaaaaaaaaaaaaaaaaaaaaaaaaaaaaaaaaaaaaaaaaaaaaaa>>>>",
"aaaaaaaaaaaaaaaaaaaaaaaaaaaaaaaaaaaaaaaaaaaaaaaaaaaaaaaaaaaaaaaaaaaaaaaaaaaaaaaaaaaaaaaaaaaa>>>>",
"aaaaaaaaaaaaaaaaaaaaaaaaaaaaaaaaaaaaaaaaaaaaaaaaaaaaaaaaaaaaaaaaaaaaaaaaaaaaaaaaaaaaaaaaaaaa>>>>",
"aaaaaaaaaaaaaaaaaaaaaaaaaaaaaaaaaaaaaaaaaaaaaaaaaaaaaaaaaaaaaaaaaaaaaaaaaaaaaaaaaaaaaaaaaaaa>>>>",
"aaaaaaaaaaaaaaaaaaaaaaaaaaaaaaaaaaaaaaaaaaaaaaaaaaaaaaaaaaaaaaaaaaaaaaaaaaaaaaaaaaaaaaaaaaaa>>>>",
"aaaaaaaaaaaaaaaaaaaaaaaaaaaaaaaaaaaaaaaaaaaaaaaaaaaaaaaaaaaaaaaaaaaaaaaaaaaaaaaaaaaaaaaaaaaa>>>>",
"g>>>>>>>>>>>>>>>>>>>>>>>>>>>>>>>>>>>>>>>>>>>>>>>>>>>>>>>>>>>>>>>>>>>>>>>>>>>>>>>>>>>>>>>>>>>>>>>",
"gg>>>>>>>>>>>>>>>>>>>>>>>>>>>>>>>>>>>>>>>>>>>>>>>>>>>>>>>>>>>>>>>>>>>>>>>>>>>>>>>>>>>>>>>>>>>>>>",
"ggg>>>>>>>>>>>>>>>>>>>>>>>>>>>>>>>>>>>>>>>>>>>>>>>>>>>>>>>>>>>>>>>>>>>>>>>>>>>>>>>>>>>>>>>>>>>>>",
"gggg>>>>>>>>>>>>>>>>>>>>>>>>>>>>>>>>>>>>>>>>>>>>>>>>>>>>>>>>>>>>>>>>>>>>>>>>>>>>>>>>>>>>>>>>>>>>"
};
