/* XPM */
static char *result[] = {
/* columns rows colors chars-per-pixel */
"96 96 21 1 ",
"  c black",
". c #0A2612",
"X c #263B06",
"o c #372925",
"O c #3B5C31",
"+ c #547026",
"@ c #464646",
"# c #6B5141",
"$ c gray47",
"% c #8F6B56",
"& c #6A8540",
"* c #64825A",
"= c #7BB06A",
"- c #87A656",
"; c gray66",
": c #D0B5A5",
"> c gray82",
", c #E8D1C5",
"< c #FFF5F0",
"1 c white",
"2 c None",
/* pixels */
"22222222222222222222..222.......2222222222222222222222222222222222222222222222222222222222222222",
"2222222222222222..2.OO...OO***OO..22222222222222222222222222222222222222222222222222222222222222",
"222222222222222.OO.O*OOOO=*****OOO.2222222222222222222222222222222222222222222222222222222222222",
"222222222222222.OO=*****==***==**OO.222222222222222222222222222222222222....222...22..2222222222",
"22222222222222.OO==***O==***====**O.22222222222222222222222222222222222.*===.2.==*..==.2....2222",
"222222222     OO*=..**=OO**==O.O=*O.    222222222222222222222222222222.OO**==....*.*==..====.222",
"22222222  ;;;.O*=.::.*...O**O.,.O=OO.;;  22222222222222222222222222222.O...**.*==.O**=.=**..2222",
"22222222 ;;;;.**=.%%%.%%:.O*.::.O=*O.;;; 2222222222222222222XXXX2222222.O...OO.*=.OO**.**.222222",
"2222222  ;;2.OO*=.%%%%%::.O*.,:o.O=O.11;  22222222222222222X++++X2222222.=**...*==.O*.OO.2222222",
"2222222 ;;;1.O*=.1o%%%%%%:.*.:o1.O=O.11;;  222222222222222XX&+&++XXX222.=**O....*=.OO.....222222",
"2222    ;;1.O*==.11ooooooo.*.o111.=*.1111>  222222222222XX++&&&--+++X22.=*O.==*.O*....*===.22222",
"2222 ;;;;11.O=..1111111111.*.11111.*O..11>> 22222222222X+++-&&&&&-+++X2.**.==*OO.O.*==.***=.2222",
"2222 @@@;;;.*.;;;;;;;;;;;.*=.;;;;;;.=OO.;@@ 2222222222X+++-&&+&++&&++X22...**OO....**=...**.2222",
"2222 $$$>>>.=.>>>>>>>>>>>.=..>>>>>>.=*OO.$$ 222222222X+&+--&&&&&&&++&+X22o#....###...*.o2..22222",
"2222 $$$$$.*=.$$$$$$$$$$$.=.$$$$$$$$.=OO.$$ 222222222X++&&&&&+&&&&+-++X22o%####%%:%%:.%o22222222",
"2222 <<<<<.=.<<<<<<<<<<<<.=.<<<<<<<<<.*O..< 2222222222X+++&++&&&&&&+&++X2o%%%%%%%:::%%:o22222222",
"2222 <<<<<.=.<<<<<<<<<<<<<.<<<<<<<<<<.=*O.< 222222222X++&&&-+++&++&++++X22o%%%%%%:::::o222222222",
"2222 <<<<<.=.<<<<<<<<<<<<<<<<<<<<<<<<<.=O.< 222222222X+++&+-XXXX--++X+XX2o:ooooooooooo,o22222222",
"2222 <<<<.O=.<<<<<<<<<<<<<<<<<<<<<<<<<.=O.< 22222222X+&+&&++X%%:X-&X:X222o%::::::,,,,,,o22222222",
"2222 <<<$.OO.$$$$$$$$$$$$$$$$$$$$$$$$$.=*.< 22222222X++&&-+XoooooX&X:o   o%%%%%%%::::::o22222222",
"2222 <<<$.O.>>>>>>>>>>>>>>>>>>>>>>>>>>.=*.< 22222222X++&&-X%%%%,,X&+Xo;;;;o%%%%%%:::,:o 22222222",
"2222 <<<$.O.11111111111111111111111111.==.< 22222222X+&&--X%%%:::X-+Xo;;;;o%%%%%:::,::o 22222222",
"2222 <<<$.O.111111111111111111111111111.=.< 2222222X++&+-X%%%%%:::X&+X11111o%%%%%::::o;   222222",
"2222 <<<$$.1111111111111111111111111111$.<< 2222222X+&--XoooooooooX-+XX11111o%%%%%::o1;;;  22222",
"2222 <<<$$11111111111111111111111111111$$<< 222222X+&&+X1111111111X-&++X11111ooooooo1111>> 22222",
"2222 <<<$$11111111111111111111111111111$$<< 222222X&&+X111111111111XX-+X1111111111111111>>> 2222",
"2222 <<<$$11111111111111111111111111111$$<< 222222X&XX@@;;;;;;;;;;;;;X&X;;;;;;;;;;;;;;;;@@@ 2222",
"2222 <<<$$11111111111111111111111111111$$<< 22222X-X $$$>>>>>>>>>>>>>X-+X>>>>>>>>>>>>>>>$$$ 2222",
"2222 <<<$$11111111111111111111111111111$$<< 22222X-X $$$$$$$$$$$$$$$$$X-X$$$$$$$$$$$$$$$$$$ 2222",
"2222 <<<$$11111111111111111111111111111$$<< 22222X-X <<<<<<<<<<<<<<<<<X-X<<<<<<<<<<<<<<<<<< 2222",
"2222 <<<$$11111111111111111111111111111$$<< 22222X+X <<<<<<<<<<<<<<<<<<X<<<<<<<<<<<<<<<<<<< 2222",
"2222 <<<$$111111   11111111111   111111$$<< 22222X+X <<<<<<<<<<<<<<<<<<<<<<<<<<<<<<<<<<<<<< 2222",
"2222 <<<$$111111 $$11111>>>>>>$$ 111111$$<< 222222XX <<<<<<<<<<<<<<<<<<<<<<<<<<<<<<<<<<<<<< 2222",
"2222 <<<$$111111   $$$$$$$$$$$   111111$$<< 222222X+X<<<$$$$$$$$$$$$$$$$$$$$$$$$$$$$$$$$<<< 2222",
"2222 <<<$$111111>>>>>>>>>>>>>1111111111$$<< 22222X-+X<<<$$>>>>>>>>>>>>>>>>>>>>>>>>>>>>$$<<< 2222",
"2222 <<<$$11111111111111111111111111111$$<< 22222X-&XX<<$$1111111111111111111111111111$$<<< 2222",
"2222 <<<@@11111111111111111111111111111@@<< 22222X&&-X<<$$1111111111111111111111111111$$<<< 2222",
"2222 <<<@@>>>>>>>>>>>>>>>>>>>>>>>>>>>>>@@<< 222222X+-X<<$$1111111111111111111111111111$$<<< 2222",
"2222 <<<                                 << 222222X+X<<<$$1111111111111111111111111111$$<<< 2222",
"2222 <<<$$11111111111111111111111111111$$<< 222222X+X<<<$$1111111111111111111111111111$$<<< 2222",
"2222 <<<$$11111111111111111111111111111$$<< 222222X+X<<<$$1111111  1111111111  1111111$$<<< 2222",
"2222 <<<$$11111111111111111111111111111$$<< 222222X+X<<<$$1111111 $111111>>>>$ 1111111$$<<< 2222",
"2222 <<<$$11111111111111111111111111111$$<< 222222X+X<<<$$1111111  $$$$$$$$$$  1111111$$<<< 2222",
"2222 <<<$$11111111111111111111111111111$$<< 2222222X <<<$$1111111>>>>>>>>>>11111111111$$<<< 2222",
"2222 <<<$$11111111111111111111111111111$$<< 22222222 <<<@@1111111111111111111111111111@@<<< 2222",
"2222 <<<$$11111111111111111111111111111$$<< 22222222 <<<@@>>>>>>>>>>>>>>>>>>>>>>>>>>>>@@<<< 2222",
"2222 <<<$$11111111111111111111111111111$$<< 22222222 <<<                                <<< 2222",
"2222 <<<$$11111111111111111111111111111$$<< 22222222 <<<$$1111111111111111111111111111$$<<< 2222",
"2222 <<<$$11111111111111111111111111111$$<< 22222222 <<<$$1111111111111111111111111111$$<<< 2222",
"2222 <<<$$11111111111111111111111111111$$<< 22222222 <<<$$1111111111111111111111111111$$<<< 2222",
"2222 <<<$$11111111111111111111111111111$$<< 22222222 <<<$$1111111111111111111111111111$$<<< 2222",
"2222 <<<$$111111   11111111111   111111$$<< 22222222 <<<$$1111111111111111111111111111$$<<< 2222",
"2222 <<<$$111111 $$11111>>>>>>$$ 111111$$<< 22222222 <<<$$1111111111111111111111111111$$<<< 2222",
"2222 <<<$$111111   $$$$$$$$$$$   111111$$<< 22222222 <<<$$1111111  1111111111  1111111$$<<< 2222",
"2222 <<<$$111111>>>>>>>>>>>>>>>>1111111$$<< 22222222 <<<$$1111111 $1111111>>>$ 1111111$$<<< 2222",
"2222 <<<@@11111111111111111111111111111@@<< 22222222 <<<$$1111111  $$$$$$$$$$  1111111$$<<< 2222",
"2222 <<<@@>>>>>>>>>>>>>>>>>>>>>>>>>>>>>@@<< 22222222 <<<$$1111111>>>>>>>>>>>>111111111$$<<< 2222",
"2222 <<<                                 << 22222222 <<<@@1111111111111111111111111111@@<<< 2222",
"2222 <<<$$11111111111111111111111111111$$<< 22222222 <<<@@>>>>>>>>>>>>>>>>>>>>>>>>>>>>@@<<< 2222",
"2222 <<<$$11111111111111111111111111111$$<< 22222222 <<<                                <<< 2222",
"2222 <<<$$11111111111111111111111111111$$<< 22222222 <<<$$1111111111111111111111111111$$<<< 2222",
"2222 <<<$$11111111111111111111111111111$$<< 22222222 <<<$$1111111111111111111111111111$$<<< 2222",
"2222 <<<$$11111111111111111111111111111$$<< 22222222 <<<$$1111111111111111111111111111$$<<< 2222",
"2222 <<<$$11111111111111111111111111111$$<< 22222222 <<<$$1111111111111111111111111111$$<<< 2222",
"2222 <<<$$11111111111111111111111111111$$<< 22222222 <<<$$1111111111111111111111111111$$<<< 2222",
"2222 <<<$$11111111111111111111111111111$$<< 22222222 <<<$$1111111111111111111111111111$$<<< 2222",
"2222 <<<$$11111111111111111111111111111$$<< 22222222 <<<$$1111111111111111111111111111$$<<< 2222",
"2222 <<<$$11111111111111111111111111111$$<< 22222222 <<<$$1111111111111111111111111111$$<<< 2222",
"2222 <<<$$11111111111111111111111111111$$<< 22222222 <<<$$1111111111111111111111111111$$<<< 2222",
"2222 <<<$$11111111111111111111111111111$$<< 22222222 <<<$$1111111111111111111111111111$$<<< 2222",
"2222 <<<$$11111111111111111111111111111$$<< 22222222 <<<$$1111111111111111111111111111$$<<< 2222",
"2222 <<<$$11111111111111111111111111111$$<< 22222222 <<<$$1111111111111111111111111111$$<<< 2222",
"2222 <<<$$11111111111111111111111111111$$<< 22222222 <<<$$1111111111111111111111111111$$<<< 2222",
"2222 <<<$$11111111111111111111111111111$$<< 22222222 <<<$$1111111111111111111111111111$$<<< 2222",
"2222 <<<$$11111111111111111111111111111$$<< 22222222 <<<$$1111111111111111111111111111$$<<< 2222",
"2222 <<<$$111111   11111111111   111111$$<< 22222222 <<<$$1111111  1111111111  1111111$$<<< 2222",
"2222 <<<$$111111 $$111111>>>>>$$ 111111$$<< 22222222 <<<$$1111111 $11111>>>>>$ 1111111$$<<< 2222",
"2222 <<<$$111111   $$$$$$$$$$$   111111$$<< 22222222 <<<$$1111111  $$$$$$$$$$  1111111$$<<< 2222",
"2222 <<<$$111111>>>>>>>>>>>>>>>11111111$$<< 22222222 <<<$$1111111>>>>>>>>>>11111111111$$<<< 2222",
"2222 <<<@@11111111111111111111111111111@@<< 22222222 <<<@@1111111111111111111111111111@@<<< 2222",
"2222 <<<@@;;;;;;;;;;;;;;;;;;;;;;;;;;;;;@@<< 22222222 <<<@@;;;;;;;;;;;;;;;;;;;;;;;;;;;;@@<<< 2222",
"2222 <<<@@@@@@@@@@@@@@@@@@@@@@@@@@@@@@@@@<< 22222222 <<<@@@@@@@@@@@@@@@@@@@@@@@@@@@@@@@@<<< 2222",
"2222 <<<111111111111111111111111111111111<< 22222222 <<<11111111111111111111111111111111<<< 2222",
"2222 <<<111111111111111111111111111111111<< 22222222 <<<11111111111111111111111111111111<<< 2222",
"2222 <<<111111111111111111111111111111111<< 22222222 <<<11111111111111111111111111111111<<< 2222",
"2222 <<<111111111111111111111111111111111<< 22222222 <<<11111111111111111111111111111111<<< 2222",
"2222 <<<111111111111111111111111111111111<< 22222222 <<<11111111111111111111111111111111<<< 2222",
"2222 <<<111111111111111111111111111111111<< 22222222 <<<11111111111111111111111111111111<<< 2222",
"2222 <<<111111111111111111111111111111111<< 22222222 <<<11111111111111111111111111111111<<< 2222",
"2222 <<<<<<<<<<<<<<<<<<<<<<<<<<<<<<<<<<<<<< 22222222 <<<<<<<<<<<<<<<<<<<<<<<<<<<<<<<<<<<<<< 2222",
"2222 <<<<<<<<<<<<<<<<<<<<<<<<<<<<<<<<<<<<<< 22222222 <<<<<<<<<<<<<<<<<<<<<<<<<<<<<<<<<<<<<< 2222",
"2222 <<<<<<<<<<<<<<<<<<<<<<<<<<<<<<<<<<<<<< 22222222 <<<<<<<<<<<<<<<<<<<<<<<<<<<<<<<<<<<<<< 2222",
"2222                                        22222222                                        2222",
"222222222222222222222222222222222222222222222222222222222222222222222222222222222222222222222222",
"222222222222222222222222222222222222222222222222222222222222222222222222222222222222222222222222",
"222222222222222222222222222222222222222222222222222222222222222222222222222222222222222222222222"
};
