/* XPM */
static char *result[] = {
/* columns rows colors chars-per-pixel */
"96 96 20 1 ",
"  c black",
". c #0A2612",
"X c #263B06",
"o c #372925",
"O c #3B5C31",
"+ c #547026",
"@ c #464646",
"# c gray47",
"$ c #8F6B56",
"% c #6A8540",
"& c #64825A",
"* c #7BB06A",
"= c #87A656",
"- c gray66",
"; c #D0B5A5",
": c gray82",
"> c #E8D1C5",
", c #FFF5F0",
"< c white",
"1 c None",
/* pixels */
"111111111111111111111111111111111111111111111111111111111111111111111111111111111111111111111111",
"111111111111111111111111111111111111111111111111111111111111111111111111111111111111111111111111",
"111111111111111111111111111111111111111111111111111111111111111111111111111111111111111111111111",
"111111111111111111111111111111111111111111111111111111111111111111111111111111111111111111111111",
"111111111111111111111111111111111111111111111111111111111111111111111111111111111111111111111111",
"111111111111111111111111111111111111111111111111111111111111111111111111111111111111111111111111",
"111111111111111111111111111111111111111111111111111111111111111111111111111111111111111111111111",
"111111111111111111111111111111111111111111111111111111111111111111111111111111111111111111111111",
"111111111111111111111111..111......1111111111111111111111111111111111111111111111111111111111111",
"111111111111111111111.1.OO...O&&&OO..11111111111111111111111111111111111111111111111111111111111",
"11111111111111111111.O.O&OOOO*&&&&OOO.1111111111111111111111111111111111111111111111111111111111",
"1111111111111111111..O*&&&&&**&&**&&OO.1111111111111111111111111111111......1..11..11...11111111",
"11111111111111@@@@ OO&..&&*OO&**O.O*&O.@@@111111111111111111111111111.O&&**...&.&**..***.1111111",
"11111111111111@---.O&*.;.&...O&O.>.O*O.--@@11111111111111111111111111....&&.&*.O&&*.*&..11111111",
"11111111111111----.&&*.$$.$$;.&.;;.O*&.---@11111111111111111XXX111111.O...OO.*.OO&&.&.1111111111",
"1111111111111@--1.OO&*.$$$$;;.&.>;o.O*.<<-@@111111111111111X+++X111111.*&&...**.O&.OO11111111111",
"1111111111111@--<.O&*.o$$$$$$.&.;o<.O*.<<--@@1111111111111XX%%++XXX11.*&&O...&*.OO....1111111111",
"1111111111@@@@-<.O&**.<oooooo.&.o<<<.*.<<<<:@@1111111111XX++%%==+++X1.*&O.**&O&....&**.111111111",
"1111111111@---<<.O*..<<<<<<<<.&.<<<<<.O..<<::@111111111X+++=%%%%=+++X.&&.**&O.O.&**.&&*.11111111",
"1111111111@@@@--.&.----------.*.------.OO.-@@@11111111X+++=%%%++%%++X1...&&OO...&&*..&&.11111111",
"1111111111@####.&*.##########..#######.*OO.##@1111111X++%%%%%%%%%+=++11o$....$;$...$o..111111111",
"1111111111:,,,,.*.,,,,,,,,,,,..,,,,,,,,.&O..,:11111111X+++%++%%%%%+%+X1o$$$$$$;;;$$;o11111111111",
"1111111111:,,,,.*.,,,,,,,,,,,,,,,,,,,,,.*&O.,:1111111X++%%%=++%++%+++X11o$$$$$;;;;;o111111111111",
"1111111111:,,,,.*.,,,,,,,,,,,,,,,,,,,,,,.*O.,:1111111X+++%+=XXX==++X+X1o;oooooooooo>o11111111111",
"1111111111:,,,.O*.,,,,,,,,,,,,,,,,,,,,,,.*O.,:111111X+%+%%++X$;X=%X;X11o$;;;;;>>>>>>o11111111111",
"1111111111:,,,.OO.######################.*&.,:111111X++%%=+XooooX%X;o@@o$$$$$$;;;;;;o11111111111",
"1111111111:,,,.O.:::::::::::::::::::::::.*&.,:111111X++%%=X$$$>>X%+Xo---o$$$$$;;;>;o 11111111111",
"1111111111:,,,.O.<<<<<<<<<<<<<<<<<<<<<<<<.*.,:111111X+%%==X$$;;;X=+Xo---o$$$$;;;>;;o 11111111111",
"1111111111:,,,#.<<<<<<<<<<<<<<<<<<<<<<<<<#.,,:111111X%==XooooooooX=+X<<<<oo$$$$;;oo--@@111111111",
"1111111111:,,,#<<<<<<<<<<<<<<<<<<<<<<<<<<##,,:11111X+%+X<<<<<<<<<X=%+X<<<<<oooooo<<<<:@111111111",
"1111111111:,,,#<<<<<<<<<<<<<<<<<<<<<<<<<<##,,:11111X%+X<<<<<<<<<<<XX=X<<<<<<<<<<<<<<<::@11111111",
"1111111111:,,,#<<<<<<<<<<<<<<<<<<<<<<<<<<##,,:11111X%X@@------------XX---------------@@@11111111",
"1111111111:,,,#<<<<<<<<<<<<<<<<<<<<<<<<<<##,,:1111X=X###::::::::::::X+X::::::::::::::## 11111111",
"1111111111:,,,#<<<<<<<<<<<<<<<<<<<<<<<<<<##,,:1111X=X################=X################ 11111111",
"1111111111:,,,#<<<<<<<<<<<<<<<<<<<<<<<<<<##,,:1111X=X:,,,,,,,,,,,,,,,=X,,,,,,,,,,,,,,,,:11111111",
"1111111111:,,,#<<<<<<<<<<<<<<<<<<<<<<<<<<##,,:1111X+X:,,,,,,,,,,,,,,,X,,,,,,,,,,,,,,,,,:11111111",
"1111111111:,,,#<<<<<< #<<<<<:::::## <<<<<##,,:11111XX:,,,,,,,,,,,,,,,,,,,,,,,,,,,,,,,,,:11111111",
"1111111111:,,,#<<<<<<  ##########   <<<<<##,,:11111X+:,,#############################,,:11111111",
"1111111111:,,,#<<<<<<:::::::::::<<<<<<<<<##,,:1111X=+,,,##:::::::::::::::::::::::::##,,:11111111",
"1111111111:,,,#<<<<<<<<<<<<<<<<<<<<<<<<<<##,,:1111X=%X,,##<<<<<<<<<<<<<<<<<<<<<<<<<##,,:11111111",
"1111111111:,,,@<<<<<<<<<<<<<<<<<<<<<<<<<<@@,,:1111X%%X,,##<<<<<<<<<<<<<<<<<<<<<<<<<##,,:11111111",
"1111111111:,,,@::::::::::::::::::::::::::@@,,:11111X+X,,##<<<<<<<<<<<<<<<<<<<<<<<<<##,,:11111111",
"1111111111:,,,                             ,,:11111X+:,,##<<<<<<<<<<<<<<<<<<<<<<<<<##,,:11111111",
"1111111111:,,,#<<<<<<<<<<<<<<<<<<<<<<<<<<##,,:11111X+:,,##<<<<<<<<<<<<<<<<<<<<<<<<<##,,:11111111",
"1111111111:,,,#<<<<<<<<<<<<<<<<<<<<<<<<<<##,,:11111X+:,,##<<<<<< #<<<<<::::# <<<<<<##,,:11111111",
"1111111111:,,,#<<<<<<<<<<<<<<<<<<<<<<<<<<##,,:11111X+:,,##<<<<<<  #########  <<<<<<##,,:11111111",
"1111111111:,,,#<<<<<<<<<<<<<<<<<<<<<<<<<<##,,:111111X:,,##<<<<<<:::::::::<<<<<<<<<<##,,:11111111",
"1111111111:,,,#<<<<<<<<<<<<<<<<<<<<<<<<<<##,,:1111111:,,@@<<<<<<<<<<<<<<<<<<<<<<<<<@@,,:11111111",
"1111111111:,,,#<<<<<<<<<<<<<<<<<<<<<<<<<<##,,:1111111:,,@@:::::::::::::::::::::::::@@,,:11111111",
"1111111111:,,,#<<<<<<<<<<<<<<<<<<<<<<<<<<##,,:1111111:,,                             ,,:11111111",
"1111111111:,,,#<<<<<<<<<<<<<<<<<<<<<<<<<<##,,:1111111:,,##<<<<<<<<<<<<<<<<<<<<<<<<<##,,:11111111",
"1111111111:,,,#<<<<<<<<<<<<<<<<<<<<<<<<<<##,,:1111111:,,##<<<<<<<<<<<<<<<<<<<<<<<<<##,,:11111111",
"1111111111:,,,#<<<<<<<<<<<<<<<<<<<<<<<<<<##,,:1111111:,,##<<<<<<<<<<<<<<<<<<<<<<<<<##,,:11111111",
"1111111111:,,,#<<<<<<  <<<<<<<<<<   <<<<<##,,:1111111:,,##<<<<<<<<<<<<<<<<<<<<<<<<<##,,:11111111",
"1111111111:,,,#<<<<<< #<<<<<:::::## <<<<<##,,:1111111:,,##<<<<<<<<<<<<<<<<<<<<<<<<<##,,:11111111",
"1111111111:,,,#<<<<<<  ##########   <<<<<##,,:1111111:,,##<<<<<<  <<<<<<<<<  <<<<<<##,,:11111111",
"1111111111:,,,#<<<<<<::::::::::::::<<<<<<##,,:1111111:,,##<<<<<< #<<<<<<:::# <<<<<<##,,:11111111",
"1111111111:,,,@<<<<<<<<<<<<<<<<<<<<<<<<<<@@,,:1111111:,,##<<<<<<  #########  <<<<<<##,,:11111111",
"1111111111:,,,@::::::::::::::::::::::::::@@,,:1111111:,,##<<<<<<:::::::::::<<<<<<<<##,,:11111111",
"1111111111:,,,#<<<<<<<<<<<<<<<<<<<<<<<<<<##,,:1111111:,,@@:::::::::::::::::::::::::@@,,:11111111",
"1111111111:,,,#<<<<<<<<<<<<<<<<<<<<<<<<<<##,,:1111111:,,                             ,,:11111111",
"1111111111:,,,#<<<<<<<<<<<<<<<<<<<<<<<<<<##,,:1111111:,,##<<<<<<<<<<<<<<<<<<<<<<<<<##,,:11111111",
"1111111111:,,,#<<<<<<<<<<<<<<<<<<<<<<<<<<##,,:1111111:,,##<<<<<<<<<<<<<<<<<<<<<<<<<##,,:11111111",
"1111111111:,,,#<<<<<<<<<<<<<<<<<<<<<<<<<<##,,:1111111:,,##<<<<<<<<<<<<<<<<<<<<<<<<<##,,:11111111",
"1111111111:,,,#<<<<<<<<<<<<<<<<<<<<<<<<<<##,,:1111111:,,##<<<<<<<<<<<<<<<<<<<<<<<<<##,,:11111111",
"1111111111:,,,#<<<<<<<<<<<<<<<<<<<<<<<<<<##,,:1111111:,,##<<<<<<<<<<<<<<<<<<<<<<<<<##,,:11111111",
"1111111111:,,,#<<<<<<<<<<<<<<<<<<<<<<<<<<##,,:1111111:,,##<<<<<<<<<<<<<<<<<<<<<<<<<##,,:11111111",
"1111111111:,,,#<<<<<<<<<<<<<<<<<<<<<<<<<<##,,:1111111:,,##<<<<<<<<<<<<<<<<<<<<<<<<<##,,:11111111",
"1111111111:,,,#<<<<<<<<<<<<<<<<<<<<<<<<<<##,,:1111111:,,##<<<<<<<<<<<<<<<<<<<<<<<<<##,,:11111111",
"1111111111:,,,#<<<<<<<<<<<<<<<<<<<<<<<<<<##,,:1111111:,,##<<<<<<<<<<<<<<<<<<<<<<<<<##,,:11111111",
"1111111111:,,,#<<<<<<<<<<<<<<<<<<<<<<<<<<##,,:1111111:,,##<<<<<<<<<<<<<<<<<<<<<<<<<##,,:11111111",
"1111111111:,,,#<<<<<<<<<<<<<<<<<<<<<<<<<<##,,:1111111:,,##<<<<<<<<<<<<<<<<<<<<<<<<<##,,:11111111",
"1111111111:,,,#<<<<<<<<<<<<<<<<<<<<<<<<<<##,,:1111111:,,##<<<<<<<<<<<<<<<<<<<<<<<<<##,,:11111111",
"1111111111:,,,#<<<<<<<<<<<<<<<<<<<<<<<<<<##,,:1111111:,,##<<<<<<<<<<<<<<<<<<<<<<<<<##,,:11111111",
"1111111111:,,,#<<<<<<<<<<<<<<<<<<<<<<<<<<##,,:1111111:,,##<<<<<<<<<<<<<<<<<<<<<<<<<##,,:11111111",
"1111111111:,,,#<<<<<< #<<<<<<::::## <<<<<##,,:1111111:,,##<<<<<< #<<<<:::::# <<<<<<##,,:11111111",
"1111111111:,,,#<<<<<<  ##########   <<<<<##,,:1111111:,,##<<<<<<  #########  <<<<<<##,,:11111111",
"1111111111:,,,#<<<<<<:::::::::::::<<<<<<<##,,:1111111:,,##<<<<<<:::::::::<<<<<<<<<<##,,:11111111",
"1111111111:,,,@<<<<<<<<<<<<<<<<<<<<<<<<<<@@,,:1111111:,,@@<<<<<<<<<<<<<<<<<<<<<<<<<@@,,:11111111",
"1111111111:,,,@--------------------------@@,,:1111111:,,@@-------------------------@@,,:11111111",
"1111111111:,,,@@@@@@@@@@@@@@@@@@@@@@@@@@@@@,,:1111111:,,@@@@@@@@@@@@@@@@@@@@@@@@@@@@@,,:11111111",
"1111111111:,,,<<<<<<<<<<<<<<<<<<<<<<<<<<<<<,,:1111111:,,<<<<<<<<<<<<<<<<<<<<<<<<<<<<<,,:11111111",
"1111111111:,,,<<<<<<<<<<<<<<<<<<<<<<<<<<<<<,,:1111111:,,<<<<<<<<<<<<<<<<<<<<<<<<<<<<<,,:11111111",
"1111111111:,,,<<<<<<<<<<<<<<<<<<<<<<<<<<<<<,,:1111111:,,<<<<<<<<<<<<<<<<<<<<<<<<<<<<<,,:11111111",
"1111111111:,,,<<<<<<<<<<<<<<<<<<<<<<<<<<<<<,,:1111111:,,<<<<<<<<<<<<<<<<<<<<<<<<<<<<<,,:11111111",
"1111111111:,,,<<<<<<<<<<<<<<<<<<<<<<<<<<<<<,,:1111111:,,<<<<<<<<<<<<<<<<<<<<<<<<<<<<<,,:11111111",
"1111111111:,,,<<<<<<<<<<<<<<<<<<<<<<<<<<<<<,,:1111111:,,<<<<<<<<<<<<<<<<<<<<<<<<<<<<<,,:11111111",
"1111111111:,,,,,,,,,,,,,,,,,,,,,,,,,,,,,,,,,,:1111111:,,,,,,,,,,,,,,,,,,,,,,,,,,,,,,,,,:11111111",
"1111111111:,,,,,,,,,,,,,,,,,,,,,,,,,,,,,,,,,,:1111111:,,,,,,,,,,,,,,,,,,,,,,,,,,,,,,,,,:11111111",
"1111111111:,,,,,,,,,,,,,,,,,,,,,,,,,,,,,,,,,,:1111111:,,,,,,,,,,,,,,,,,,,,,,,,,,,,,,,,,:11111111",
"1111111111::::::::::::::::::::::::::::::::::::1111111:::::::::::::::::::::::::::::::::::11111111",
"111111111111111111111111111111111111111111111111111111111111111111111111111111111111111111111111",
"111111111111111111111111111111111111111111111111111111111111111111111111111111111111111111111111",
"111111111111111111111111111111111111111111111111111111111111111111111111111111111111111111111111",
"111111111111111111111111111111111111111111111111111111111111111111111111111111111111111111111111",
"111111111111111111111111111111111111111111111111111111111111111111111111111111111111111111111111"
};
