/* XPM */
static char *result[] = {
/* columns rows colors chars-per-pixel */
"96 96 2 1 ",
"  c #3C708C",
". c #417A9C",
/* pixels */
"........  ..............  ..............  ..............  ..............  ..............  ......",
"........  ..............  ..............  ..............  ..............  ..............  ......",
"........  ..............  ..............  ..............  ..............  ..............  ......",
"........  ..............  ..............  ..............  ..............  ..............  ......",
"........  ..............  ..............  ..............  ..............  ..............  ......",
"........  ..............  ..............  ..............  ..............  ..............  ......",
"                                                                                                ",
"                                                                                                ",
"........  ..............  ..............  ..............  ..............  ..............  ......",
"........  ..............  ..............  ..............  ..............  ..............  ......",
"........  ..............  ..............  ..............  ..............  ..............  ......",
"........  ..............  ..............  ..............  ..............  ..............  ......",
"........  ..............  ..............  ..............  ..............  ..............  ......",
"........  ..............  ..............  ..............  ..............  ..............  ......",
"........  ..............  ..............  ..............  ..............  ..............  ......",
"........  ..............  ..............  ..............  ..............  ..............  ......",
"........  ..............  ..............  ..............  ..............  ..............  ......",
"........  ..............  ..............  ..............  ..............  ..............  ......",
"........  ..............  ..............  ..............  ..............  ..............  ......",
"........  ..............  ..............  ..............  ..............  ..............  ......",
"........  ..............  ..............  ..............  ..............  ..............  ......",
"........  ..............  ..............  ..............  ..............  ..............  ......",
"                                                                                                ",
"                                                                                                ",
"........  ..............  ..............  ..............  ..............  ..............  ......",
"........  ..............  ..............  ..............  ..............  ..............  ......",
"........  ..............  ..............  ..............  ..............  ..............  ......",
"........  ..............  ..............  ..............  ..............  ..............  ......",
"........  ..............  ..............  ..............  ..............  ..............  ......",
"........  ..............  ..............  ..............  ..............  ..............  ......",
"........  ..............  ..............  ..............  ..............  ..............  ......",
"........  ..............  ..............  ..............  ..............  ..............  ......",
"........  ..............  ..............  ..............  ..............  ..............  ......",
"........  ..............  ..............  ..............  ..............  ..............  ......",
"........  ..............  ..............  ..............  ..............  ..............  ......",
"........  ..............  ..............  ..............  ..............  ..............  ......",
"........  ..............  ..............  ..............  ..............  ..............  ......",
"........  ..............  ..............  ..............  ..............  ..............  ......",
"                                                                                                ",
"                                                                                                ",
"........  ..............  ..............  ..............  ..............  ..............  ......",
"........  ..............  ..............  ..............  ..............  ..............  ......",
"........  ..............  ..............  ..............  ..............  ..............  ......",
"........  ..............  ..............  ..............  ..............  ..............  ......",
"........  ..............  ..............  ..............  ..............  ..............  ......",
"........  ..............  ..............  ..............  ..............  ..............  ......",
"........  ..............  ..............  ..............  ..............  ..............  ......",
"........  ..............  ..............  ..............  ..............  ..............  ......",
"........  ..............  ..............  ..............  ..............  ..............  ......",
"........  ..............  ..............  ..............  ..............  ..............  ......",
"........  ..............  ..............  ..............  ..............  ..............  ......",
"........  ..............  ..............  ..............  ..............  ..............  ......",
"........  ..............  ..............  ..............  ..............  ..............  ......",
"........  ..............  ..............  ..............  ..............  ..............  ......",
"                                                                                                ",
"                                                                                                ",
"........  ..............  ..............  ..............  ..............  ..............  ......",
"........  ..............  ..............  ..............  ..............  ..............  ......",
"........  ..............  ..............  ..............  ..............  ..............  ......",
"........  ..............  ..............  ..............  ..............  ..............  ......",
"........  ..............  ..............  ..............  ..............  ..............  ......",
"........  ..............  ..............  ..............  ..............  ..............  ......",
"........  ..............  ..............  ..............  ..............  ..............  ......",
"........  ..............  ..............  ..............  ..............  ..............  ......",
"........  ..............  ..............  ..............  ..............  ..............  ......",
"........  ..............  ..............  ..............  ..............  ..............  ......",
"........  ..............  ..............  ..............  ..............  ..............  ......",
"........  ..............  ..............  ..............  ..............  ..............  ......",
"........  ..............  ..............  ..............  ..............  ..............  ......",
"........  ..............  ..............  ..............  ..............  ..............  ......",
"                                                                                                ",
"                                                                                                ",
"........  ..............  ..............  ..............  ..............  ..............  ......",
"........  ..............  ..............  ..............  ..............  ..............  ......",
"........  ..............  ..............  ..............  ..............  ..............  ......",
"........  ..............  ..............  ..............  ..............  ..............  ......",
"........  ..............  ..............  ..............  ..............  ..............  ......",
"........  ..............  ..............  ..............  ..............  ..............  ......",
"........  ..............  ..............  ..............  ..............  ..............  ......",
"........  ..............  ..............  ..............  ..............  ..............  ......",
"........  ..............  ..............  ..............  ..............  ..............  ......",
"........  ..............  ..............  ..............  ..............  ..............  ......",
"........  ..............  ..............  ..............  ..............  ..............  ......",
"........  ..............  ..............  ..............  ..............  ..............  ......",
"........  ..............  ..............  ..............  ..............  ..............  ......",
"........  ..............  ..............  ..............  ..............  ..............  ......",
"                                                                                                ",
"                                                                                                ",
"........  ..............  ..............  ..............  ..............  ..............  ......",
"........  ..............  ..............  ..............  ..............  ..............  ......",
"........  ..............  ..............  ..............  ..............  ..............  ......",
"........  ..............  ..............  ..............  ..............  ..............  ......",
"........  ..............  ..............  ..............  ..............  ..............  ......",
"........  ..............  ..............  ..............  ..............  ..............  ......",
"........  ..............  ..............  ..............  ..............  ..............  ......",
"........  ..............  ..............  ..............  ..............  ..............  ......"
};
