/* XPM */
static char *result[] = {
/* columns rows colors chars-per-pixel */
"96 96 2 1 ",
"  c #0D415F",
". c #135B85",
/* pixels */
"........  ..............  ..............  ..............  ..............  ..............  ......",
"........  ..............  ..............  ..............  ..............  ..............  ......",
"........  ..............  ..............  ..............  ..............  ..............  ......",
"........  ..............  ..............  ..............  ..............  ..............  ......",
"........  ..............  ..............  ..............  ..............  ..............  ......",
"........  ..............  ..............  ..............  ..............  ..............  ......",
"                                                                                                ",
"                                                                                                ",
"........  ..............  ..............  ..............  ..............  ..............  ......",
"........  ..............  ..............  ..............  ..............  ..............  ......",
"........  ..............  ..............  ..............  ..............  ..............  ......",
"........  ..............  ..............  ..............  ..............  ..............  ......",
"........  ..............  ..............  ..............  ..............  ..............  ......",
"........  ..............  ..............  ..............  ..............  ..............  ......",
"........  ..............  ..............  ..............  ..............  ..............  ......",
"........  ..............  ..............  ..............  ..............  ..............  ......",
"........  ..............  ..............  ..............  ..............  ..............  ......",
"........  ..............  ..............  ..............  ..............  ..............  ......",
"........  ..............  ..............  ..............  ..............  ..............  ......",
"........  ..............  ..............  ..............  ..............  ..............  ......",
"........  ..............  ..............  ..............  ..............  ..............  ......",
"........  ..............  ..............  ..............  ..............  ..............  ......",
"                                                                                                ",
"                                                                                                ",
"........  ..............  ..............  ..............  ..............  ..............  ......",
"........  ..............  ..............  ..............  ..............  ..............  ......",
"........  ..............  ..............  ..............  ..............  ..............  ......",
"........  ..............  ..............  ..............  ..............  ..............  ......",
"........  ..............  ..............  ..............  ..............  ..............  ......",
"........  ..............  ..............  ..............  ..............  ..............  ......",
"........  ..............  ..............  ..............  ..............  ..............  ......",
"........  ..............  ..............  ..............  ..............  ..............  ......",
"........  ..............  ..............  ..............  ..............  ..............  ......",
"........  ..............  ..............  ..............  ..............  ..............  ......",
"........  ..............  ..............  ..............  ..............  ..............  ......",
"........  ..............  ..............  ..............  ..............  ..............  ......",
"........  ..............  ..............  ..............  ..............  ..............  ......",
"........  ..............  ..............  ..............  ..............  ..............  ......",
"                                                                                                ",
"                                                                                                ",
"........  ..............  ..............  ..............  ..............  ..............  ......",
"........  ..............  ..............  ..............  ..............  ..............  ......",
"........  ..............  ..............  ..............  ..............  ..............  ......",
"........  ..............  ..............  ..............  ..............  ..............  ......",
"........  ..............  ..............  ..............  ..............  ..............  ......",
"........  ..............  ..............  ..............  ..............  ..............  ......",
"........  ..............  ..............  ..............  ..............  ..............  ......",
"........  ..............  ..............  ..............  ..............  ..............  ......",
"........  ..............  ..............  ..............  ..............  ..............  ......",
"........  ..............  ..............  ..............  ..............  ..............  ......",
"........  ..............  ..............  ..............  ..............  ..............  ......",
"........  ..............  ..............  ..............  ..............  ..............  ......",
"........  ..............  ..............  ..............  ..............  ..............  ......",
"........  ..............  ..............  ..............  ..............  ..............  ......",
"                                                                                                ",
"                                                                                                ",
"........  ..............  ..............  ..............  ..............  ..............  ......",
"........  ..............  ..............  ..............  ..............  ..............  ......",
"........  ..............  ..............  ..............  ..............  ..............  ......",
"........  ..............  ..............  ..............  ..............  ..............  ......",
"........  ..............  ..............  ..............  ..............  ..............  ......",
"........  ..............  ..............  ..............  ..............  ..............  ......",
"........  ..............  ..............  ..............  ..............  ..............  ......",
"........  ..............  ..............  ..............  ..............  ..............  ......",
"........  ..............  ..............  ..............  ..............  ..............  ......",
"........  ..............  ..............  ..............  ..............  ..............  ......",
"........  ..............  ..............  ..............  ..............  ..............  ......",
"........  ..............  ..............  ..............  ..............  ..............  ......",
"........  ..............  ..............  ..............  ..............  ..............  ......",
"........  ..............  ..............  ..............  ..............  ..............  ......",
"                                                                                                ",
"                                                                                                ",
"........  ..............  ..............  ..............  ..............  ..............  ......",
"........  ..............  ..............  ..............  ..............  ..............  ......",
"........  ..............  ..............  ..............  ..............  ..............  ......",
"........  ..............  ..............  ..............  ..............  ..............  ......",
"........  ..............  ..............  ..............  ..............  ..............  ......",
"........  ..............  ..............  ..............  ..............  ..............  ......",
"........  ..............  ..............  ..............  ..............  ..............  ......",
"........  ..............  ..............  ..............  ..............  ..............  ......",
"........  ..............  ..............  ..............  ..............  ..............  ......",
"........  ..............  ..............  ..............  ..............  ..............  ......",
"........  ..............  ..............  ..............  ..............  ..............  ......",
"........  ..............  ..............  ..............  ..............  ..............  ......",
"........  ..............  ..............  ..............  ..............  ..............  ......",
"........  ..............  ..............  ..............  ..............  ..............  ......",
"                                                                                                ",
"                                                                                                ",
"........  ..............  ..............  ..............  ..............  ..............  ......",
"........  ..............  ..............  ..............  ..............  ..............  ......",
"........  ..............  ..............  ..............  ..............  ..............  ......",
"........  ..............  ..............  ..............  ..............  ..............  ......",
"........  ..............  ..............  ..............  ..............  ..............  ......",
"........  ..............  ..............  ..............  ..............  ..............  ......",
"........  ..............  ..............  ..............  ..............  ..............  ......",
"........  ..............  ..............  ..............  ..............  ..............  ......"
};
