/* XPM */
static char *result[] = {
/* columns rows colors chars-per-pixel */
"96 96 28 1 ",
"  c #6AB7D3",
". c #6DBAD6",
"X c #6FBBD8",
"o c #70BCD7",
"O c #72BDD9",
"+ c #76C1DC",
"@ c #79C3DE",
"# c #7DC5E1",
"$ c #7FC8E2",
"% c #80C7E5",
"& c #83CAE5",
"* c #88CEE7",
"= c #86CBE9",
"- c #8ACEEB",
"; c #8DD1ED",
": c #92D6EF",
"> c #8FD1F0",
", c #94D5F4",
"< c #98D7F7",
"1 c #96D9F2",
"2 c #9BDCF5",
"3 c #97D8F8",
"4 c #9AD9F9",
"5 c #A0DFFB",
"6 c #9FE0F7",
"7 c #9FE0F8",
"8 c #A6E5FC",
"9 c None",
/* pixels */
"4444444444444448888888888888888888888888888888884444444<444444444444<444444444444444444444444444",
"444443444444434588888888888888888888888888888855444444444444444444444444444444444444444444444444",
"444444444444444458888888888888888888888888888544444444444444444444444444444444444<4444<4<4444<44",
"444444444444444428888888888888888888888888544444444444444444444444444444444444444444444444444444",
"44443444444444444588888888888888888888624544444444444444444444444444444444444444<444444444444444",
"4444444444444444445888888888888888826:&@#<44<<344444444444444444444<4444444444444444444444444444",
"4344444444444444441*-2588888888821*%oo+%-<<>=#<4444444444444444<4444<4444444<4444444444<44444444",
"444444344434444444,%o+&;111221:*@oo@*:::<>#XX#,44444344444444444444444444444444444444444<4444444",
"444<444444444444443,=OO. ..o.. X@*,,3>>=%O @-,44444444444444<44444444344444444444444344444444444",
"444444444444444444444<>>-:;---,<2242=OO.OO#>4444444444444444444444444444444444444444444444444444",
"444444444443444444444444444444444444,==->>,4444444<444444444444444444444444444444444444444444444",
"444444444444444444444444444444444444433444444444444444<444444444444444444444<<4244<4444444444444",
"4444444444444444344444444444444444444444444444444<44444444444444444443<<,,--***:<444444444444444",
"444<44444444444<44444<44444<44444444443444444444444444444444<44444444,:*@OOOo+o@=>34444444444444",
"444444444444444444444444444444444443344444444444444444444444444443<1-%OO@*:121:%XO<4444444444444",
"4444444444444444444444444444<44444444444444444444444444<4444,,,>:;&Oo+*228888866,%244444<4444444",
"4444444444444444444444444444444444444<444444444444<4444444;=OOO@O +%:268888888888585444444444444",
"4444444444444444444444<444444444<444444444444444444445454<Oo..O&*8288888888888888888544444444444",
"4<4444<444444444444444444444<4444444444444<44444454455888521::258888888888888888888854444<44<444",
"444444444<44<4444<44444444<444444444444444444445558588888888888888888888888888888888544444444444",
"<4444444444444444<44444444444444444444444<444458888888888888888888888888888888888888854444444444",
"444444444444444444444444444444444444444444444558888888888888888888888888888888888888554444444444",
"4444444<444444<4444444<444<444444<444<44444455888888888888888888888888888888888888885544<444444<",
"4444444444<4444444444444444444<44444444444445888888888888888888888888888888888888888544444444444",
"444444444444444444444444444444444444444444455888888888888858888888888888888888888888554444444444",
"4444444<44444444444444<4444444444444444444445888888888888888888888888888888888888888544444444444",
"444444444444444<44444444<44444444444444444445888888888888888888888888888888888888885444444444444",
"44<44444<4444444444<44444444444<4444444444448888888888888888888888888888888888888885444444444444",
"444444444444<44444444444444<44444444444444428888888888888888888888888888888888888544444444444444",
"444<44<4444444444444444<44444444444444444444888888888888888888888888888888888888554444444444444<",
"4444444444444444444<4444444444444444444444558888888888888888888888888888888888555444444<44444444",
"444444444444444444444444444444444444444<44488888888888888888888888888888888888544444444444444444",
"4444<444444444<444444444444444444444444455588888888888888888888888888888888855444444444444444444",
"<444444444<444444444<4444<4444<44444444488888888888888888888888888888888888844444444444444444<44",
"4444444444444444<4444444444444444444444588888888888888888888888888888888855544444444444444444444",
"4444444444444444444444444444444444444455888888888888888888888888888888888554444444444444444<4444",
"44444444444444444444<44444444444444445888888888888888888888888888888888554444444<444444444444443",
"4444<4444444444444444444444444444444588888888888888888888888888888888885444444444444444444444444",
"4444444444<444444<444444444<<444444458888888888888888888888888888888885444444444444444<444444444",
"4<4444444444<44444444444444444444455888888888888888888888888888888885544444444444444444444444444",
"444444444444444444<44444444444444445888888888888888888888888888888855444444444444444444444444444",
"44<444444444444444444444444444444455888888888888888888888888888885544444444444444444444344444444",
"4444<4444444<44444444444444444444445888888888888888888888888888854444444444444444444444444444444",
"4444444444<444444444<4444444<4444458888888888888888888888888888844444444434444444444444444444444",
"44444444444444444444444444444444454588888888888888888888855554:<44444444444444444434444444344444",
"444444444444444444444444444444444455888888888888888888885545,&%;<444444444444343<<<<<,,,,,,,,<44",
"4444444444<4444444444444444444444455888888888888888855555<=OOO-<44<4444444444<:--=%%%%%#####%-,4",
"4444<444444444<4444<444444444444444588888888888885554444;O..O=4444444444444<;%OoXOO@O#@#####OO&3",
"45444444444444444444444444444444444588288888888555422:#O@-::><344443444444<-+O&;1222226862282288",
"55444444444444444444444444444<44344421o*1::2254454<&OoO@;5544444444444443,-OO:888888888888888888",
"8855444444444<44444444<44444444444444<%Oo..OO@+#&OoO&:,<2444444434444444:@O#18888888888888888888",
"888554454444444444444444444<444444432<<>&ooO@%#%*-:1<4<4<444444444444444*+;288888888888888888888",
"8888885554444444444444444444444444444444<,-,,,,,244444444444444444442688528888888888888888888888",
"888888885555444444444444444444444444444444334444444444444444444444446888888888888888888888888888",
"888888885888554444444444444444444444434444444444444444444444434434448888888888888888888888888888",
"88888888888855554454444545444<44444444444444444<444444444444444432888888888888888888888888888888",
"8888888888888888888585888855444444444444444<4444444444444444444488888888888888888888888888888888",
"888888888888888888888888888854444444444444444444444444444444444488888888888888888888888888888888",
"888888888888888888888888888885444444444444444444<44444444434444588888888888888888888888888888888",
"888888888888888888888888888855444344444444444444444444444444455888888888888888888888888888888888",
"888888888888888888888888888885444444<44444444444444444444444558888888888888888888888888888888888",
"888888888888888888888888888885444444444444444444444444444445588888888888888888888888888888888888",
"8888888888888888888888888888554444<4444444444444444444444455888888888888888888888888888888888888",
"888888888888888888888888888884444444444444444444444444444458888888888888888888888888888888888888",
"888888888888888888888888888885<<4444444444444444444444445888888888888888888888888888888888888888",
"8888888888888888888888888888554<4444444434444444444344448888888888888888888888888888888888888888",
"888888888888888888888888888854443444444444444444444444448888888888888888888888888888888888888888",
"8888888888888888888888888885<4444444444444444444444444558888888888888888888888888888888888888888",
"88888888888888888888888851,4<4444444443444444444444545588888888888888888888888888888888888888888",
"888888888888888888888885-Oo>44444444444444444444445558888888888888888888888888888888888888888888",
"88888888888888888888885Oo@-444444444444444444445588888888888888888888888888888888888888888888888",
"88888888888888888888881*-<4444444444344444444558888888888888888888888888888888888888888888888888",
"8888888888888888855544<<<44444448244455888888888888888888888888888888888888888888888888888888888",
"888888888888888885544444444444448858888888888888888888888888888888888888888888888888888888888888",
"888888888888888555444444444445458888888888888888888888888888888888888888888888888888888888888888",
"8888888888885554<4444444444455558888888888888888888888888888888888888888888888888888888888888888",
"888888888886:&O=<4444444445558888888888888888888888888888888888888888888888888888888888888888888",
"8888888886*%OO%><4444444455888888888888888888888888888888888888888888888888888888888888888888888",
"88888882*+oO&><<44444455558888888888888888888888888888888888888888888888888888888888888888888888",
"88886:*oo%*:15<<44444<55888888888888888888888888888888888888888888888888888888888888888888888888",
"5,X...O#-,34444444445558888888888888888888888888888888888888888888888888888888888888888888885885",
"4<>-->>,4444444444448888888888888888888888888888888888888888888888888888888888888888888555444444",
"44<<444<4444444444458888888888888888888888888888888888888888888888888888888888888888544444444444",
"444444444444444445588888888888888888888888888888888888888888888888888888888888888888444444444444",
"444444444444444445888888888888888888888888888888888888888888888888888888888888888844444444444444",
"444444444444444458888888888888888888888888888888888888888888888888888888888888888844444444444444",
"4444444444344444588888888888888888888888888888888888888888888888888888888888885585<<44444<444444",
"4444444444444445888888888888888888888888888888888888888888888888888888888888884482--<44444444444",
"4444444444444448888888888888888888888888888888888888888888888888888888888888233,%OO=<44444444444",
"44444444444444488888888888888888888888888888888888888888888888888888888884<;&#%O@-><444444444444",
"4444444444444458888888888888888888888888888888888888888888866668882822::=#O.O#%>,<44444444444444",
"44444444444444588888888888888888888888888888888888888866;&&&@&@&&&@@+Oo..+$=>,334334444444444444",
"44444444444445888888888888888888888888888888888888886*+ .OOO+O#OOO@O@@&->,<344444444444444444444",
"444444444444458888888888888888888888888888888888888,@+@*;,,,,,,,<,,<,,<<444444444444444444444444",
"444444444444448888888888888888888888888888888888881OO*124444444444444444444444444444444444545544",
"999999999999999999999999999999999999999999999999999 99999999999999999999999999999999999999999999"
};
