/* XPM */
static char *result[] = {
/* columns rows colors chars-per-pixel */
"96 96 25 1 ",
"  c #6AB7D3",
". c #6DBAD6",
"X c #6FBBD8",
"o c #70BCD7",
"O c #72BDD9",
"+ c #76C1DC",
"@ c #79C3DE",
"# c #7DC5E1",
"$ c #80C7E5",
"% c #83CAE5",
"& c #88CEE7",
"* c #86CBE9",
"= c #8ACEEB",
"- c #8DD1ED",
"; c #92D6EF",
": c #8FD1F0",
"> c #94D5F4",
", c #98D7F7",
"< c #96D9F2",
"1 c #9ADBF5",
"2 c #97D8F8",
"3 c #9AD9F9",
"4 c #A0DFFA",
"5 c #9FE0F7",
"6 c #A6E5FC",
/* pixels */
"3333333333333336666666666666666666666666666666663333,3333333333333333333,33333333333333333333333",
"333333323333332466666666666666666666666666666644333333333333333333333333333333333333333333333333",
"3333333333333333466666666666666666666666666644333333333333333333332333333333333333333333333,3333",
"333333333333333336666666666666666666666666434333333333333333333333333333333333333333333333333333",
"33333323333333333466666666666666666666513433333333333333,333333333333333333333333333333333333333",
"3333333333333333334666666666666666651;%@*>333>3333,333333333333333333332333333333333333,33333333",
"333323333233333333<&&146666666661;&$oo+$:>>:*$23333333333333333333333333,33333,33333333333333,33",
"333233333333333333>$o+%=<<<11<;&@oo@&;;;>:$XX@>3333333333333333333333333333333333333333333333333",
"3333333333333333333>*OO.  .oo  X@&<<,::=$X +=>333,3333,33333333333333333333333333333333333333333",
"333333333333333333332,>:;;===:>,1132*OO.OO#:32333333333333,3333333333333333333333,3333333323,333",
"333333333333333333323333,,33,3333333>**=::,33333333333333333333323333333333333333333333333333333",
"3333333333333323333333333333333333333223333333333333333333333333333333333333<3333333333333333333",
"333333333,333333333333333333333,3333333333333333333333333333,3333333333,>>:&&&&;>333333333333333",
"33333333333333333333333233333333232333333333333333333333333333333333,>;&@OOO+oo+*>33333333333333",
"33333333333333333333333333333333333332333333333333333333333333333,,;=$OO@&;<<<-$.O,3333333333333",
",3333333333333333333333333333333333333333333333333,333,33333>>>:;-%+o+&<44666665>$3333233333,333",
"3333333333333333333333333333333333333333333333333333333333-*O@@OO.O$;15666666666646433333333333,",
"33333,333333333333333333,333333,3333,33333333333333344334,oo  O%&416666666666666666643333,333333",
"33333333333,,3333,33333333333333333333333333333334334466463<;;1466666666666666666666433333333333",
"33333333333333333333333,33333333,333333333333333446466666666666666666666666666666666433333333333",
"333333,3333333333333333333333333333333333,333346466666666666666666666666666666666666643333333333",
"33,333333333333333333333333333333333333333333446666666666666666666666666666666666666443333333333",
"333333333333333333333,33,333333,33333,3333333666666666666666666666666666666666666666443333333333",
"3333333333333,33,3333333333333333333333333334666666666666666666666666666666666666666433333,333,3",
"333333333,333,33333333333333333333333333,333466666666666664466666666666666666666666643333333,333",
"333333333333333333333,33333333333333333333336666666666666666666666666666666666666666433333333333",
"3333333333333333333333333333333,2333333333344666666666666666666666666666666666666664333333333333",
"333,333,333333333333333333,333333333333333336666666666666666666666666666666666666664333333333333",
"33333333333333333333333333,333333333333333336666666666666666666666666666666666666443333333333333",
"33,33333333333333,3333333333333333332333333366666666666666666666666666666666666643,3333333333333",
"33333333333333,333333333333333333333333333346666666666666666666666666666666666644333333333333333",
"333333333,3333333333,33333333333,333333333366666666666666666666666666666666664433333333333333333",
"33333,3333333333333333333333333333333,3344466666666666666666666666666666666644333333333333333333",
"3333333333333333333,3333,3333,333333333346666666666666666666666666666666666633333333333333333333",
",33333333333333333333333333333333333333466666666666666666666666666666666644433333333333333333333",
"3333333333,33333333333,33333333333333446666666666666666666666666666666666433333333333333,3333333",
"333333333,333333333333333333333333333466666666666666666666666666666666644433333333333,3333333333",
"333333333333333,33,33333333333333333446666666666666666666666666666666664333333333333333333333333",
"3333,3333333333333333333,333,333333366666666666666666666666666666666664333333,333333333333333323",
",33333333333333333333333333333333334666666666666666666666666666666664433333333333333333333333333",
"333333333333333333333333333333333334666666666666666666666666666666644333333333333333333333333333",
"33333,333,333333333333333333,333333666666666666666666666666666666443333333333333333333333,333333",
"333333333333333,33333333333333333336666666666666666666666666666643333333333333333333333333333333",
"3333333333333333333,3,33333333333344666666666666666666666666644433333333333333333333333333333333",
"3333333,333333333333333333333333344466666666666666666666644443>>3333333333,333,3333333,333333333",
"33,333333333333333333333333333333444666666666666666666664434>%$:,3333333333333323>>,,>,>>>>>,,32",
"33333333333333,333333333333333333334666666666666666644444,*OOO:,3333333333333,:-**$$$#$###@##*:2",
"33333333,33333333333,3333333333333346666666666666643333,:Oo..&,333,33333333,>$OoX+++@@@#####@O*,",
"34333333333333333333333333333333333166<66666666444333;@++&;;>,333333333333,=OO&;6666666666666666",
"4433333333333333333333333333333333331<O&;;;3113333<&Oo+@;143,,3333333333,>*OO;666666666666666666",
"664433333333333,33333333,333333333333,$Oo..O@@@#$@oO%;<<333332333333333,:$O$66666666666666666666",
"66644433333333333333333,33333333333333>>%O.O###$%=;<,3,3333333333333333,&O6666666666666666666666",
"66666644433333333323333333333333333333333>--:>,>3333333332333333,33,4666666666666666666666666666",
"666666664444333333333333333333,33333333233333333333333333333332333344666666666666666666666666666",
"666666664666443333333333333333333333333333333333333333333333333333346666666666666666666666666666",
"666666666666444443333334343333333333323333333333333333333333333333466666666666666666666666666666",
"666666666666666666646466646433333333333333333333333333333333333366666666666666666666666666666666",
"666666666666666666666666666443333233333333333333333333333333333366666666666666666666666666666666",
"666666666666666666666666666664333333323333333,33333333333333333666666666666666666666666666666666",
"6666666666666666666666666666643333333333333333333,3333333333246666666666666666666666666666666666",
"666666666666666666666666666644333333333333333333333333333333466666666666666666666666666666666666",
"666666666666666666666666666664332333333333333333333333333334666666666666666666666666666666666666",
"666666666666666666666666666664333333333333333333333333333236666666666666666666666666666666666666",
"666666666666666666666666666644333333333333333333333333333346666666666666666666666666666666666666",
"66666666666666666666666666666333333333333333333,33333,334466666666666666666666666666666666666666",
"666666666666666666666666666644333333333333333333333333336666666666666666666666666666666666666666",
"666666666666666666666666666643333333333333333333333333336666666666666666666666666666666666666666",
"6666666666666666666666666664,333,333332333333333333333466666666666666666666666666666666666666666",
"6666666666666666666666664,;,,3333333333333333333333434466666666666666666666666666666666666666666",
"666666666666666666666664&OX>33333333333333333333334466666666666666666666666666666666666666666666",
"6666666666666666666666<Oo@-,33333333333333333334666666666666666666666666666666666666666666666666",
"6666666666666666666664,&=>3333,3333,334333366666666666666666666666666666666666666666666666666666",
"66666666666666666444333,333333336434366666666666666666666666666666666666666666666666666666666666",
"666666666666666664433333333333336666666666666666666666666666666666666666666666666666666666666666",
"666666666666666444333333333333446666666666666666666666666666666666666666666666666666666666666666",
"666666666666644,,3333333333334646666666666666666666666666666666666666666666666666666666666666666",
"666666666661;%O*,3333333334466666666666666666666666666666666666666666666666666666666666666666666",
"6666666665-$OO$:,3333333346666666666666666666666666666666666666666666666666666666666666666666666",
"66666661&+oO%:>,33333334466666666666666666666666666666666666666666666666666666666666666666666666",
"6664<;&o.$&;,43333333346666666666666666666666666666666666666666666666666666666666666666666666666",
"4,XX..X#=>,3333333334466666666666666666666666666666666666666666666666666666666666666666666666666",
"3,=*=::>3333333333336666666666666666666666666666666666666666666666666666666666666666666666446666",
"333,33333333333333366666666666666666666666666666666666666666666666666666666666666666444343333344",
"3333333333333333336666666666666666666666666666666666666666666666666666666666666666663,,343333333",
"33333333333333334466666666666666666666666666666666666666666666666666666666666666664,,,33,4,43333",
"3333333333333333666666666666666666666666666666666666666666666666666666666666666666,,,43,,,,,3333",
"333333333333333466666666666666666666666666666666666666666666666666666666666666446444,333,4,,,433",
"333333333,333336666666666666666666666666666666666666666666666666666666666666644344$=,333,,4,,,33",
"3333333333333344666666666666666666666666666666666666666666666666666666666666433>$OO*,4,4,4,,,,,4",
"33333333333333466666666666666666666666666666666666666666666666666666666644,:%$$O#*:,,,,,,,4,4,,,",
"3333,333333333666666666666666666666666666666666666666666666466666445<4;;*#+XoO=:>,33,,,,,,,,,4,4",
"3333333333333366666666666666666666666666666666666666666666**$$$$&%$++Oo.XO$*->33,,33334,4,4,,,,,",
"333333333333466666666666666666666666666666666666666666+ .XOO++++OOOO+$$&:>,,33333333,,,,,4,4,,,4",
"3333333333334666666666666666666666666666666666666666%+@&:>>>:>>:,,,><>,,33,3333333334,4,,,,,4,,,",
"3333333333333666666666666666666666666666666666666666o&<13333333333333333333333333333,,,4,4,,,4,4",
"33,3333333333666666666666666666666666666666666666663333133333333333333333333,3333,334,,,,,4,,,,,"
};
