/* XPM */
static char *result[] = {
/* columns rows colors chars-per-pixel */
"96 96 48 1 ",
"  c #31522E",
". c #3C6428",
"X c #485F3D",
"o c #44732E",
"O c #40643C",
"+ c #4A7731",
"@ c #4D7034",
"# c #49713F",
"$ c #507232",
"% c #517438",
"& c #366F48",
"* c #496D46",
"= c #417D41",
"- c #5C7A53",
"; c #6B7B43",
": c #588A3B",
"> c #588D3E",
", c #5F8B41",
"< c #5E8C41",
"1 c #588558",
"2 c #4D925B",
"3 c #608A40",
"4 c #669F4B",
"5 c #8E5E98",
"6 c #9D6C95",
"7 c #9F6FA3",
"8 c #9F7EAA",
"9 c #AD6DA0",
"0 c #B06BA9",
"q c #BF79A6",
"w c #B373AD",
"e c #5196BB",
"r c #68B6D2",
"t c #968A9F",
"y c #9682AB",
"u c #9782AB",
"i c #B880B7",
"p c #DEB5BE",
"a c #CA8FCC",
"s c #CA8FCD",
"d c #CA8FCE",
"f c #CB90CD",
"g c #CB90CE",
"h c #CB90CF",
"j c #D492C5",
"k c #CB92D0",
"l c #9AD9F9",
"z c None",
/* pixels */
"zzzzzzzzzzzzzzzzzzzzzzzzzzzzzzzzzzzzzzzzzzzzzzzzzzzzzzzzzzzzzzzzzzzzzzzzzzzzzzzzzzzzzzzzzzzzzzzz",
"zzzzzzzzzzzzzzzzzzzzzzzzzzzzzzzzzzzzzzzzzzzzzzzzzzzzzzzzzzzzzzzzzzzzzzzzzzzzzzzzzzzzzzzzzzzzzzzz",
"zzzzzzzzzzzzzzzzzzzzzzzzzzzzzzzzzzzzzzzzzzzzzzzzzzzzzzzzzzzzzzzzzzzzzzzzzzzzzzzzzzzzzzzzzzzzzzzz",
"zzzzzzzzzzzzzzzzzzzzzzzzzzzzzzzzzzzzzzzzzzzzzzzzzzzzzzzzzzzzzzzzzzzzzzzzzzzzzzzzzzzzzzzzzzzzzzzz",
"zzzzzzzzzzzzzzzzzzzzzzzzzzzzzzzzzzzzzzzzzzzzzzzzzzzzzzzzzzzzzzzzzzzzzzzzzzzzzzzzzzzzzzzzzzzzzzzz",
"zzzzzzzzzzzzzzzzzzzzzzzzzzzzzzzzzzzzzzzzzzzzzzzzzzzzzzzzzzzzzzzzzzzzzzzzzzzzzzzzzzrzzzzzzzzzzzzz",
"zzzzzzzzzzzzzzzzzzzzzzzzzzzzzzzzzzzzzzzzzzzzzzzzzzzzzzzzzzzzzzzzzzzzzgzzzzzzzzzzrrrzzzzzzzzzzzzz",
"zzzzzzzzzzzzzzzzzzzzzzzzzzzzzzzzzzzzzzzzzzzzzzzzzzzzzzzzzzzzzzzzzzz9zggzr8rzzzrrrrrrrrzzzzzzzzzz",
"zzzzzzzzzzzzzzzzzzzzzzzzzzzzzzzzzzzzzzzzzzzzzzzzzzzzzzzzzzzzzzzzzzz9zggz88rzzrrrrrrrzzzzrrrzzzzz",
"zzzzzzzzzzzzzzzzzzzzzzzzzzzzzzzzzzzzzzzzzzzzzzzzzzzzzzzzzzzzzzzzzzz9gggz88zrzttrgrrrzrrrrrrzzzzz",
"zzzzzzzzzzzzzzzzzzzzzzzzzzzzzzzzzzzzzzzzzzzzzzzzzzzzzzzzzzzzzz6qqiz99gg888zrrtrgggrrrrrrrrzzzzzz",
"zzzzzzzzzzzzzzzzzzzzzzzzzzzzzzzzzzzzzzzzzzzzzzzzzzzzzzzzzzzzzz6qqii99gg888rrttrgggrrrrrrrzzzzrzz",
"zzzzzzzzzzzzzzzzzzzzzzzzzzzzzzzzzzzzzzzzzzzzzzzzzzzzzzzzzzzzzz6qqii99ggg88rttrrggr7rrzzzzzrrrrzz",
"zzzzzzzzzzzzzzzzzzzzzzzzzzzzzzzzzzzzzzzzzzzzzzzzzzzzzzzzzzzzqq66qqii99gjj80ttgggr77rr777rrrrrrzz",
"zzzzzzzzzzzzzzzzzzzzzzzzzzzzzz++++++++++++zzzzzzzzzzzzzzzzzz5qq6qqii999jjj0ttgggr77rr77rrrrrrzzz",
"zzzzzzzzzzzzzzzzzzzzzzzzoooooo,,,,,,,,,++++OOzzzzzzzzzzzzzzz55q66qii999jjj00pggqq77r77rwrrrzzzzz",
"zzzzzzzzzzzzzzzzzzzz+ooo+,,,,,,,,,,,,,,,,,++++Ozzzzzzzzzzzzze5566qii999jj00pppgq00777wwrrrzyzzzz",
"zzzzzzzzzzzzzzzzz++oo,,,,,,,,,,,,,,,,,,,,,,,,++Ozzzzzzzzzzzzze5666qi999jj0ppppqq0077wwrrrryrzzzz",
"zzzzzzzzzzzzzzz++oo,,,,,,,,,,,,,,,,,,,,,,,,,,,+Ozzzzzzzzzzzzzze666qqi99900pppqq0007wwrrr0yqzzzzz",
"zzzzzzzzzzzzzz+oo,,,,,,,,,,,,,,,,,,,,,,,,,,,,,+ zrrrrrrrrrzrzze55566ii9990ppqq000wwwqr00qqqzzzzz",
"zzzzzzzzzzzzooo,,,,,,,,,,,,,,,,,,,,,,,,,,,,,oo+ rrrOOO  gggrzzre5566ii9900pqqq00wwqqq000qqqrrzzz",
"zzzzzzzzzzoo,,,,,,,,,,,,,,,,,,,,,,,,,,,,,,,oo++rOOOooooo gggggggge5566i000q000qqqq0000qqqq5rrzzz",
"zzzzzzzoo+,,,,,,,,,,,,,,,,,,,,,,,,,,,,,ooo    oo,,,,,,,,*oOgggggggg5666000000qqqqq000qqqq55rzzzz",
"zzzzzzzoo+,,,,,,,,,,,,,,,,,,,,,,,,,,,,,oooo  Ooo,,,,,,,,*oOeeegggggg566i0000qqq00000qqqq555rrzzz",
"zzzzzzo++,,,,,,,,,,,,,,,,,,,,,,,,,,,oooO++O++,,,,,,,,,,,,*oOrreeeggggq6500000000qqqq55555rrzzzzz",
"zzzz++,,,,,,,,,,,,,,,,,,,,,,,ooooooO---,,,,,,,,,,,,,,,,,,,**Orrgggggggq5550555555555555rrrrrzzzz",
"zzzO+,,,,,,,,,,,,,,,,,,,,oooo+Ooo---,,,,,,,,,,,,,,,,,,,,,,,*Ogggggggggg555gg555555eeeerrrrzzzzzz",
"zzzO+,,,,,,,,,,,,,,,,,,,,oooo+Ooo---,,,,,,,,,,,,,,,,,,,,,,,*Oggggggggggggggggggggggggrrrrrrrrrzz",
"zzO,,,,,,,,,,,,,,,,,,,,,,,----,,,,,,,,,,,,,,,,,,,,,,,,,,,,,ooOeeeeeegggeeegggggggggggggrrrrrrrzz",
"zzO,,,,,,,,,,,,,,,,,,,,,,,,,,,,,,,,,,,,,,,,,,,,,,,,,,,,,,,oooOrrrrrggggrrrggggeeeeegggggrzzzzzzz",
"zO,,,,,,,,,,,,,,,,,,,,,,,,,,,,,,,,,,,,,,,,,,,,,,,,,,,,,,,,ooOerrrgggeeerrreegggrrrreeeeggzzzzzzz",
"zO,,,,,,,,,,,,,,,,,,,,,,,,,,,,,,,,,,,,,,,,,,,,,,,,,,,,,,,oooOrrrrgggrrrrzz11111111111111ggzzzzzz",
"zO,,,,,,,,,,,,,,,,,,,,,,,,,,,,,,,,,,,,,,,,,,,,,,,,,,,,,,oooOerrgggeerr111133333333333331111zzzzz",
"zO,,,,,,,,,,,,,,,,,,,,,,,,,,,,,,,,,,,,,,,,,,,,,,,,,,,,oooOOOrrrggerrr113333333333333333333111zzz",
"zO,,,,,,,,,,,,,,,,,,,,,,,,,,,,,,,,,,,,,,,,,,,,,,,,,,,ooooOerrrreer%%%%%%%333333333333333333311zz",
"zOO,,,,,,,,,,,,,,,,,,,,,,,,,,,,,,,,,,,,,,,,,,,,,,,,oooooOerrrrzz%%%=====%%%%3333333333333333311z",
"zeO++,,,,,,,,,,,,,,,,,,,,,,,,,,,,,,,,,,,,,,,,,,,ooooooOOOrrrzzz====33333333%%333333333333333331z",
"rreee+,,,,,,,,,,,,,,,,,,,,,,,,,,,,,,,,,,,,ooooooOOOOOeeeerzzzz==3333333333333333333333333333331z",
"zrrrr+,,,,,,,,,,,,,,,,,,,,,,,,,,,,,,,,,,,,ooooooOOOOOrrrrrzzzz==3333333333333333333333333333==1z",
"zzrrre+,,,,,,,,,,,,,,,,,,,,,,,,,,,,,,,,oooooooooOOOeerrrrrzzzz==33333333333333333333333333====ez",
"zzzrrreOOOOOOO+++++++,,,,,,,,,,oooooooooooOOOOeeeerrrrzzzzzzzzz===333333333333333333333======erz",
"zzzzrrreeeeeeeOtOOOOO++d++++oooooooOOOOOOOeeeerrrrrr>>>>>>>>>>zzz===33333333333333333======errrz",
"zzzzzzrrrrrr7rgOtOOO8+gg++++oooooooOOOOOOOrrrr>>>>>>4444444444>>>>z=====333333333333====eeerrrrz",
"zzzuzzzz7rr77rgeteee8egge9eeeeeeeeeeeeeeeerrrr>>>>>>4444444444>>>>zrzre==============eeerrrrrrzz",
"zzzzzzzw77r77gggttrr88gg99rrrrrrrrrrrrrrrr>>>>444444444444444444444>>>>rrrreeeeeeeeeerrrrrrrzzzz",
"zzzzyzzzw7777qggtt88ggg99iirrrrrrrrrrrrrz>>>44444444444444444444444444>>>rrrrrrrrrrrrrrrrrrzzzzz",
"zzzqyy0zww770qgpp008jg999iiq6rrrrrrrrr>>>444444444444444444444444444444>>>rrrrrrrrrrrrrrrzzzzzzz",
"zzzqyy0zww770qgpp008jg999iiq6zzzzzzrzz>>>444444444444444444444444444444>>>rrrrrrrrrrrrrzzzzzzzzz",
"zzz5qq00www0qqqppp0jj999iiqq6z5zzzzzz>>>4444444444444444444444444444444>>>zzzzzzzzzrzzzzzzzzzzzz",
"rzz5qqq0qqw00qqpp00jj999iiq66q5rzz>>>44444444444444444444>>444444444444>>>rzzzzzzzzzzzzzzzzzzzzz",
"rrre5qq000qw00qpp00j99iiqq6qq5zzz>>44444444444444444444>2>>44444444444>>>>rzzzlzzzzzzzzzzzzzzzzz",
"zrrr555qq00qqq0qqp0999iiq6655ezzz>>44444444444444444444>2>>44444444444>>>>rzzzzzzzzzzzzzzzzzzzzz",
"zrrreee5qqq0qqq00q099i6q6665ezr4444444444444444444444>>224444444444444>>>>rrrzzzzzzzzzzzzzzzzzzz",
"zzzrrrree550000000ii6666555gggggf44444444444444444444222444444444444>>>>>>rrrzzzzzzzzzzzzzzzzzzz",
"zzzzzzgzggggg55000i66555gggggggg>444444444444444444>2>>444444444444>>>>>>errzzzzzzzzzzzzzzzzzzzz",
"zzzzgggggggggg555556qggggggeee>>>444444444444444444>2>>444444444444>>>>>>rrrzzzzzzzzzzzzzzzzzzzz",
"zzggggegeegggggggg5gggggggerrr>>>444444444444444>>>2>44444444444>>>>>>eerrrzzzzzzzzzzzzzzzzzzzzz",
"zzeeerrrrreegggeggggeegggggrrre222>4444444444>>>222e>4444444444>>>>>eerrrrzzzzzzzzzzzzzzzzzzzzzz",
"zrrrrrrrrrrrgggrggggrrgggggrrrree22>>4444>>>2>222eer4>>44444>>>>>>eerrrrrzzrzzzzzzzzzzzzzzzzzzzz",
"rrrrrrrrrrzzggereeggggrzegggrrrzz22>>4444>>>2>222rrr4>>44444>>>>>>errrrrrrzzzzzzzzzzzzzzzzzzzzzz",
"zzzzzzzzzzzggrrrrregggzzregggzzzzzz22222>>222eeeerrre>>>>>>>>>>eeerrrrrzzzzrrzrrrzzzzzzzzzzzzzzz",
"zzzzzzzzzzseerrrrrr;;;;;;;;;;;;;;<<eeeeeeeeerrrrrrrrreeeeeeeeeerrrrrzzzzzrrrrrrrrrzzzzzzzzzzzzzz",
"zzzzzzzzzzerrrrzz;;<<<<<<<<<<<<<:::<<<<<rrrrrrrrrrrkarrrrrrrrrrrrrrrrrz...........zzzzzzzzzzzzzz",
"zzzzzzzzzzrrrzzzz;;<<<<<<<<<<<<<:::<<<<<rrrrrrrrrrrgg9rrrqrrrrrzzzzz....#########....zzzzzzzzzzz",
"zzzzzzzz$$$$$$$$z;;<<<<<<<<<<<<<<<<<<<<<<<<<rzzzz8rgg9zirqrrrrzrr...####@@@@@@@######XXXzzzzzzzz",
"zzzzzzzz$<<<<$$$$$$$$<<<<<<<<<<<<<<<<<<<<<<<<<<zz88gg9iiqq6z5zr..###@@@@@@@@@@@@@@@@@@@XXXzzzzzz",
"zzzzz&&<<<<<<<<<<<<<$$$$$<<<<<<<<<<<<<<<<<<<<;;zz888gg9iiq6q5z##@@@@@@@@@@@@@@@@@@@@@@@@@XXzzzzz",
"zzzz&<<<<<<<<<<<<<<<<<<<$$$<<<<<<<<<<<<<<<<7gg;tz08jg99iq665z#@@@@@@@@@@@@@@@@@@@@@@@@@@@@Xzzzzz",
"zzzz&<<<<<<<<<<<<<<<<<<<$$$<<<<<<<<<<<<<<<<7gggtt0jj99iiq65rrX@@@@@@@@@@@@@.......@@@@@@@@Xzzzzz",
"zzzz&;;<<<<<<<<<<<<<<<<<<<<<<<<<<<<<<<<<<<<7gggtt00j99iqq66eXX@@@@@@@@@@@...XXX......@@@@XXzzzzz",
"zzzz&;;;<<<<<<<<<<<<<<<<<<<<<<<<<<<<<<<7<<<7<ggpppp0j99i66erX@@@@@@@@@@@@@@@@@@XXXeeXXXXXXezzzzz",
"zzzz&&&::<<<<<<<<<<<<<<<<<<<<<<<<<<<<<<<77777qqqppp099i655ggXX@@@@@@@@@@@@@@@@@@@@XXeeeeeezzzzzz",
"zzzz&&&::<<<<<<<<<<<<<<<<<<<<<<<<<<<<<<<www7700qqpq00i65gggrrXX..@@@@@@@@@@@@@@@@@@@Xrrrrrzzzzzz",
"zzzzz&&&:::<:<<<<<<<<<<<<<<<<<<<<<<<<<<<<$www0w00q000655ggggrrXXX...@@@@@@@@@@@@@@@XXXrrrrzzzzzz",
"zzzzzeee&::::::;;<<<<<<<<<<<<<<<<<<<<<y00&wqqwwqq0q00iqggggggggggXXX@.....@@@@@@@@.XXXrrzzzzzzzz",
"zzzzzzzze&&&&&&&;;;:<<<<<<<<<<<<<<<<$$qqqq0000q00qq055ggggeeegeeegeeXXXXXX....@..XXXerrrzzzzzzzz",
"zzzzzzzzzzeeeeer&&&&&&&&;;;$$$$$$$$$&&&5qqqqq005555ggggggrrrrrrrrrrreeeeeXXXXXXXXXeerrrzzzzzzzzz",
"zzzzzzzzzzzzrree&&&&&&&&;;;$$$$$$$$$&&&&55q5555gggggeeeeggggrrrrrrrrrrrrrreeeeeeeerrrrzzzzzzzzzz",
"zzzzzzzzzzzzzrrreeeeeeee&&&&&&&&&&&&eeeeee5eegggggggrrrreegggrrrrzzzrrrrrrrrrrrrrrrrrzzzzzzzzzzz",
"zzzzzzzzzzzzzzzzrrrrrrrreeeeeeeeeeeerrrrrreggggeeggerrrrrrreerrrrzzzzzzzzrzzzrrrrrrrrzzzzzzzzzzz",
"zzzzzzzzzzzzzzzzzrrrrrrrrrrrrrrrrrrrrrrrrzzgeerrrggrrrrrrrrrrrrrrzzzzzzzzzzzzzzzzzzzzzzzzzzzzzzz",
"zzzzzzzzzzzzzzzzzzrrrrrrrrrrrrrrrrrrrrrzzgggrrrrrgrrrrrrrrrrrrrrzzzzzzzzzzzzzzzzzzzzzzzzzzzzzzzz",
"zzzzzzzzzzzzzzzzzzzzzzzrrrrrrrrrrrrrrzzzzgeerrrrzehrrrrzzzzzzzzzzzzzzzzzzzzzzzzzzzzzzzzzzzzzzzzz",
"zzzzzzzzzzzzzzzzzzzzzzzzzzzzzzzzzzzzzzzzzgrrrrrzzzerrrzzzzzzzzzzzzzzzzzzzzzzzzzzzzzzzzzzzzzzzzzz",
"zzzzzzzzzzzzzzzzzzzzzzzzzzzzzzzzzzzzzzzzzerrrrzzzzzrzzzzzzzzzzzzzzzzzzzzzzzzzzzzzzzzzzzzzzzzzzzz",
"zzzzzzzzzzzzzzzzzzzzzzzzzzzzzzzzzzzzzzzzzrrrrzzzzzzzzzzzzzzzzzzzzzzzzzzzzzzzzzzzzzzzzzzzzzzzzzzz",
"zzzzzzzzzzzzzzzzzzzzzzzzzzzzzzzzzzzzzzzzzzzzzzzzzzzzzzzzzzzzzzzzzzzzzzzzzzzzzzzzzzzzzzzzzzzzzzzz",
"zzzzzzzzzzzzzzzzzzzzzzzzzzzzzzzzzzzzzzzzzzzzzzzzzzzzzzzzzzzzzzzzzzzzzzzzzzzzzzzzzzzzzzzzzzzzzzzz",
"zzzzzzzzzzzzzzzzzzzzzzzzzzzzzzzzzzzzzzzzzzzzzzzzzzzzzzzzzzzzzzzzzzzzzzzzzzzzzzzzzzzzzzzzzzzzzzzz",
"zzzzzzzzzzzzzzzzzzzzzzzzzzzzzzzzzzzzzzzzzzzzzzzzzzzzzzzzzzzzzzzzzzzzzzzzzzzzzzzzzzzzzzzzzzzzzzzz",
"zzzzzzzzzzzzzzzzzzzzzzzzzzzzzzzzzzzzzzzzzzzzzzzzzzzzzzzzzzzzzzzzzzzzzzzzzzzzzzzzzzzzzzzzzzzzzzzz",
"zzzzzzzzzzzzzzzzzzzzzzzzzzzzzzzzzzzzzzzzzzzzzzzzzzzzzzzzzzzzzzzzzzzzzzzzzzzzzzzzzzzzzzzzzzzzzzzz",
"zzzzzzzzzzzzzzzzzzzzzzzzzzzzzzzzzzzzzzzzzzzzzzzzzzzzzzzzzzzzzzzzzzzzzzzzzzzzzzzzzzzzzzzzzzzzzzzz",
"zzzzzzzzzzzzzzzzzzzzzzzzzzzzzzzzzzzzzzzzzzzzzzzzzzzzzzzzzzzzzzzzzzzzzzzzzzzzzzzzzzzzzzzzzzzzzzzz",
"zzzzzzzzzzzzzzzzzzzzzzzzzzzzzzzzzzzzzzzzzzzzzzzzzzzzzzzzzzzzzzzzzzzzzzzzzzzzzzzzzzzzzzzzzzzzzzzz",
"zzzzzzzzzzzzzzzzzzzzzzzzzzzzzzzzzzzzzzzzzzzzzzzzzzzzzzzzzzzzzzzzzzzzzzzzzzzzzzzzzzzzzzzzzzzzzzzz"
};
