/* XPM */
static char *result[] = {
/* columns rows colors chars-per-pixel */
"96 96 21 1 ",
"  c black",
". c #0A2612",
"X c #263B06",
"o c #372925",
"O c #3B5C31",
"+ c #547026",
"@ c #464646",
"# c #6B5141",
"$ c gray47",
"% c #8F6B56",
"& c #6A8540",
"* c #64825A",
"= c #7BB06A",
"- c #87A656",
"; c gray66",
": c #D0B5A5",
"> c gray82",
", c #E8D1C5",
"< c #FFF5F0",
"1 c white",
"2 c None",
/* pixels */
"222222222222222222222222222222222222222222222222222222222222222222222222222222222222222222222222",
"222222222222222222222222222222222222222222222222222222222222222222222222222222222222222222222222",
"222222222222222222222222222222222222222222222222222222222222222222222222222222222222222222222222",
"2222222222222222222222..222......222222222222222222222222222222222222222222222222222222222222222",
"222222222222222222..2.OO...OO***O..2222222222222222222222222222222222222222222222222222222222222",
"22222222222222222.OO.O*OOOO=****OOO.222222222222222222222222222222222222222222222222222222222222",
"22222222222222222.OO=*****==***=**OO.2222222222222222222222222222222222....222...22.222222222222",
"2222222222222222.OO==***O==***===**O.222222222222222222222222222222222.*===.2.==*..=.2....222222",
"222222222222    OO*=..**=OO**==OO=*O.    2222222222222222222222222222.OO**==....*.*=..====.22222",
"22222222222  ;;.O*=.::.*...O**O..O=OO.;;  222222222222222222222222222.O...**.*==.O*=.=**..222222",
"22222222222 ;;;.**=.%%%.%%:.O*.:.O=*O.;;; 222222222222222222XXXX222222.O...OO.*=.OO*.**.22222222",
"2222222222 ;;;1O*=.1o%%%%%%:.*.:1.O=O.11;;  22222222222222XX&+&++XX222.=**O....*=.O.....22222222",
"2222222    ;;1.*==.11ooooooo.*.o11.=*.1111>  22222222222XX++&&&--++X22.=*O.==*.O*...*===.2222222",
"2222222 ;;;;11.=..1111111111.*.1111.*O..11>> 2222222222X+++-&&&&&-++X2.**.==*OO.O.*=.***=.222222",
"2222222 @@@;;;..;;;;;;;;;;;.*=.;;;;;.=OO.;@@ 222222222X+++-&&+&++&++X22...**OO....*=...**.222222",
"2222222 $$$>>>..>>>>>>>>>>>.=..>>>>>.=*OO.$$ 22222222X+&+--&&&&&&&+&+X22o#....###..*.o2..2222222",
"2222222 $$$$$.*.$$$$$$$$$$$.=.$$$$$$$.=OO.$$ 22222222X++&&&&&+&&&&-++X22o%####%%:%%.%o2222222222",
"2222222 <<<<<.=<<<<<<<<<<<<.=.<<<<<<<<.*O..< 222222222X+++&++&&&&&+&++X2o%%%%%%%:::%:o2222222222",
"2222222 <<<<<.=<<<<<<<<<<<<<.<<<<<<<<<.=*O.< 22222222X++&&&-+++&++++++X22o%%%%%%::::o22222222222",
"2222222 <<<<<.=<<<<<<<<<<<<<<<<<<<<<<<<.=O.< 22222222X+++&+-XXXX--+X+XX2o:oooooooooo,o2222222222",
"2222222 <<<<.O=<<<<<<<<<<<<<<<<<<<<<<<<.=O.< 2222222X+&+&&++X%%:X-X:X222o%::::::,,,,,o2222222222",
"2222222 <<<$.OO$$$$$$$$$$$$$$$$$$$$$$$$.=*.< 2222222X++&&-+XoooooXX:o   o%%%%%%%:::::o2222222222",
"2222222 <<<$.O.>>>>>>>>>>>>>>>>>>>>>>>>.=*.< 2222222X++&&-X%%%%,,X+Xo;;;;o%%%%%%::::o 2222222222",
"2222222 <<<$.O.111111111111111111111111.==.< 2222222X+&&--X%%%:::X+Xo;;;;o%%%%%:::,:o 2222222222",
"2222222 <<<$.O.1111111111111111111111111.=.< 222222X++&+-X%%%%%:::&+X11111o%%%%%:::o;   22222222",
"2222222 <<<$$.11111111111111111111111111$.<< 222222X+&--Xooooooooo-+XX11111o%%%%%::1;;;  2222222",
"2222222 <<<$$111111111111111111111111111$$<< 22222X+&&+X1111111111-&++X11111ooooooo111>> 2222222",
"2222222 <<<$$111111111111111111111111111$$<< 22222X&&+X11111111111XX-+X111111111111111>>> 222222",
"2222222 <<<$$111111111111111111111111111$$<< 2222X-X $$$>>>>>>>>>>>>X-+X>>>>>>>>>>>>>>$$$ 222222",
"2222222 <<<$$111111111111111111111111111$$<< 2222X-X $$$$$$$$$$$$$$$$X-X$$$$$$$$$$$$$$$$$ 222222",
"2222222 <<<$$111111111111111111111111111$$<< 2222X-X <<<<<<<<<<<<<<<<X-X<<<<<<<<<<<<<<<<< 222222",
"2222222 <<<$$111111111111111111111111111$$<< 2222X+X <<<<<<<<<<<<<<<<<X<<<<<<<<<<<<<<<<<< 222222",
"2222222 <<<$$11111   11111111111  111111$$<< 2222X+X <<<<<<<<<<<<<<<<<<<<<<<<<<<<<<<<<<<< 222222",
"2222222 <<<$$11111 $$11111>>>>>>$ 111111$$<< 22222XX <<<<<<<<<<<<<<<<<<<<<<<<<<<<<<<<<<<< 222222",
"2222222 <<<$$11111   $$$$$$$$$$$  111111$$<< 22222X+X<<<$$$$$$$$$$$$$$$$$$$$$$$$$$$$$$<<< 222222",
"2222222 <<<$$11111>>>>>>>>>>>>>111111111$$<< 2222X-+X<<<$$>>>>>>>>>>>>>>>>>>>>>>>>>>$$<<< 222222",
"2222222 <<<$$111111111111111111111111111$$<< 2222X-&XX<<$$11111111111111111111111111$$<<< 222222",
"2222222 <<<@@111111111111111111111111111@@<< 2222X&&-X<<$$11111111111111111111111111$$<<< 222222",
"2222222 <<<@@>>>>>>>>>>>>>>>>>>>>>>>>>>>@@<< 22222X+-X<<$$11111111111111111111111111$$<<< 222222",
"2222222 <<<                               << 22222X+X<<<$$11111111111111111111111111$$<<< 222222",
"2222222 <<<$$111111111111111111111111111$$<< 22222X+X<<<$$11111111111111111111111111$$<<< 222222",
"2222222 <<<$$111111111111111111111111111$$<< 22222X+X<<<$$1111111 1111111111  111111$$<<< 222222",
"2222222 <<<$$111111111111111111111111111$$<< 22222X+X<<<$$1111111 111111>>>>$ 111111$$<<< 222222",
"2222222 <<<$$111111111111111111111111111$$<< 22222X+X<<<$$1111111 $$$$$$$$$$  111111$$<<< 222222",
"2222222 <<<$$111111111111111111111111111$$<< 222222X <<<$$1111111>>>>>>>>>1111111111$$<<< 222222",
"2222222 <<<$$111111111111111111111111111$$<< 2222222 <<<@@>>>>>>>>>>>>>>>>>>>>>>>>>>@@<<< 222222",
"2222222 <<<$$111111111111111111111111111$$<< 2222222 <<<                              <<< 222222",
"2222222 <<<$$111111111111111111111111111$$<< 2222222 <<<$$11111111111111111111111111$$<<< 222222",
"2222222 <<<$$111111111111111111111111111$$<< 2222222 <<<$$11111111111111111111111111$$<<< 222222",
"2222222 <<<$$111111111111111111111111111$$<< 2222222 <<<$$11111111111111111111111111$$<<< 222222",
"2222222 <<<$$111111111111111111111111111$$<< 2222222 <<<$$11111111111111111111111111$$<<< 222222",
"2222222 <<<$$11111   11111111111  111111$$<< 2222222 <<<$$11111111111111111111111111$$<<< 222222",
"2222222 <<<$$11111 $$11111>>>>>>$ 111111$$<< 2222222 <<<$$11111111111111111111111111$$<<< 222222",
"2222222 <<<$$11111   $$$$$$$$$$$  111111$$<< 2222222 <<<$$1111111 1111111111  111111$$<<< 222222",
"2222222 <<<$$11111>>>>>>>>>>>>>>>1111111$$<< 2222222 <<<$$1111111 1111111>>>$ 111111$$<<< 222222",
"2222222 <<<@@111111111111111111111111111@@<< 2222222 <<<$$1111111 $$$$$$$$$$  111111$$<<< 222222",
"2222222 <<<@@>>>>>>>>>>>>>>>>>>>>>>>>>>>@@<< 2222222 <<<$$1111111>>>>>>>>>>>11111111$$<<< 222222",
"2222222 <<<                               << 2222222 <<<@@11111111111111111111111111@@<<< 222222",
"2222222 <<<$$111111111111111111111111111$$<< 2222222 <<<@@>>>>>>>>>>>>>>>>>>>>>>>>>>@@<<< 222222",
"2222222 <<<$$111111111111111111111111111$$<< 2222222 <<<                              <<< 222222",
"2222222 <<<$$111111111111111111111111111$$<< 2222222 <<<$$11111111111111111111111111$$<<< 222222",
"2222222 <<<$$111111111111111111111111111$$<< 2222222 <<<$$11111111111111111111111111$$<<< 222222",
"2222222 <<<$$111111111111111111111111111$$<< 2222222 <<<$$11111111111111111111111111$$<<< 222222",
"2222222 <<<$$111111111111111111111111111$$<< 2222222 <<<$$11111111111111111111111111$$<<< 222222",
"2222222 <<<$$111111111111111111111111111$$<< 2222222 <<<$$11111111111111111111111111$$<<< 222222",
"2222222 <<<$$111111111111111111111111111$$<< 2222222 <<<$$11111111111111111111111111$$<<< 222222",
"2222222 <<<$$111111111111111111111111111$$<< 2222222 <<<$$11111111111111111111111111$$<<< 222222",
"2222222 <<<$$111111111111111111111111111$$<< 2222222 <<<$$11111111111111111111111111$$<<< 222222",
"2222222 <<<$$111111111111111111111111111$$<< 2222222 <<<$$11111111111111111111111111$$<<< 222222",
"2222222 <<<$$111111111111111111111111111$$<< 2222222 <<<$$11111111111111111111111111$$<<< 222222",
"2222222 <<<$$111111111111111111111111111$$<< 2222222 <<<$$11111111111111111111111111$$<<< 222222",
"2222222 <<<$$111111111111111111111111111$$<< 2222222 <<<$$11111111111111111111111111$$<<< 222222",
"2222222 <<<$$111111111111111111111111111$$<< 2222222 <<<$$11111111111111111111111111$$<<< 222222",
"2222222 <<<$$111111111111111111111111111$$<< 2222222 <<<$$11111111111111111111111111$$<<< 222222",
"2222222 <<<$$11111   11111111111  111111$$<< 2222222 <<<$$1111111 1111111111  111111$$<<< 222222",
"2222222 <<<$$11111 $$111111>>>>>$ 111111$$<< 2222222 <<<$$1111111 11111>>>>>$ 111111$$<<< 222222",
"2222222 <<<$$11111   $$$$$$$$$$$  111111$$<< 2222222 <<<$$1111111 $$$$$$$$$$  111111$$<<< 222222",
"2222222 <<<$$11111>>>>>>>>>>>>>>11111111$$<< 2222222 <<<$$1111111>>>>>>>>>1111111111$$<<< 222222",
"2222222 <<<@@111111111111111111111111111@@<< 2222222 <<<@@11111111111111111111111111@@<<< 222222",
"2222222 <<<@@@@@@@@@@@@@@@@@@@@@@@@@@@@@@@<< 2222222 <<<@@@@@@@@@@@@@@@@@@@@@@@@@@@@@@<<< 222222",
"2222222 <<<1111111111111111111111111111111<< 2222222 <<<111111111111111111111111111111<<< 222222",
"2222222 <<<1111111111111111111111111111111<< 2222222 <<<111111111111111111111111111111<<< 222222",
"2222222 <<<1111111111111111111111111111111<< 2222222 <<<111111111111111111111111111111<<< 222222",
"2222222 <<<1111111111111111111111111111111<< 2222222 <<<111111111111111111111111111111<<< 222222",
"2222222 <<<1111111111111111111111111111111<< 2222222 <<<111111111111111111111111111111<<< 222222",
"2222222 <<<1111111111111111111111111111111<< 2222222 <<<111111111111111111111111111111<<< 222222",
"2222222 <<<1111111111111111111111111111111<< 2222222 <<<111111111111111111111111111111<<< 222222",
"2222222 <<<<<<<<<<<<<<<<<<<<<<<<<<<<<<<<<<<< 2222222 <<<<<<<<<<<<<<<<<<<<<<<<<<<<<<<<<<<< 222222",
"2222222 <<<<<<<<<<<<<<<<<<<<<<<<<<<<<<<<<<<< 2222222 <<<<<<<<<<<<<<<<<<<<<<<<<<<<<<<<<<<< 222222",
"2222222 <<<<<<<<<<<<<<<<<<<<<<<<<<<<<<<<<<<< 2222222 <<<<<<<<<<<<<<<<<<<<<<<<<<<<<<<<<<<< 222222",
"2222222                                      2222222                                      222222",
"222222222222222222222222222222222222222222222222222222222222222222222222222222222222222222222222",
"222222222222222222222222222222222222222222222222222222222222222222222222222222222222222222222222",
"222222222222222222222222222222222222222222222222222222222222222222222222222222222222222222222222",
"222222222222222222222222222222222222222222222222222222222222222222222222222222222222222222222222",
"222222222222222222222222222222222222222222222222222222222222222222222222222222222222222222222222"
};
