/* XPM */
static char *result[] = {
/* columns rows colors chars-per-pixel */
"96 96 22 1 ",
"  c black",
". c #0A2612",
"X c #263B06",
"o c #372925",
"O c #3B5C31",
"+ c #547026",
"@ c #464646",
"# c #6B5141",
"$ c gray47",
"% c #8F6B56",
"& c #6A8540",
"* c #64825A",
"= c #7BB06A",
"- c #87A656",
"; c gray66",
": c #D0B5A5",
"> c #D1C2BA",
", c gray82",
"< c #E8D1C5",
"1 c #FFF5F0",
"2 c white",
"3 c None",
/* pixels */
"333333333333333333333333333333333333333333333333333333333333333333333333333333333333333333333333",
"333333333333333333333333333333333333333333333333333333333333333333333333333333333333333333333333",
"333333333333333333333333333333333333333333333333333333333333333333333333333333333333333333333333",
"33333333333333333333333333333333333333333333333333333333333333....333...33..33333333333333333333",
"3333333333333333333333333333333333333333333333333333333333333.*===.3.==*..==.3....33333333333333",
"333333333333333333333333333333333333333333333333333333333333.OO**==....*.*==..====.3333333333333",
"333333333333333333333333333333333333333333333333333333333333.O...**.*==.O**=.=**..33333333333333",
"33333333333333333333333333333333333XXXX3333333333333333333333.O...OO.*=.OO**.**.3333333333333333",
"3333333333333333333333333333333333X++++X3333333333333333333333.=**...*==.O*.OO.33333333333333333",
"333333333333333333333333333333333XX&+&++XXX333333333333333333.=**O....*=.OO.....3333333333333333",
"3333333333333333333333333333333XX++&&&--+++X33333333333333333.=*O.==*.O*....*===.333333333333333",
"333333333333333333333333333333X+++-&&&&&-+++X3333333333333333.**.==*OO.O.*==.***=.33333333333333",
"33333333333333333333333333333X+++-&&+&++&&++X33333333333333333...**OO....**=...**.33333333333333",
"3333333333333333333333333333X+&+--&&&&&&&++++X33333333333333333o#....###...*.o3..333333333333333",
"3333333333333333333333333333X++&&&&&+&&&&+-++X33333333333333333o%####%%:%%:.%o333333333333333333",
"33333333333333333333333333333X+++&++&&&&&&+&++X3333333333333333o%%%%%%%:::%%:o333333333333333333",
"3333333333333333333333333333X++&&&-+++&++&++++X33333333333333333o%%%%%%:::::o3333333333333333333",
"3333333333333333333333333333X+++&+-XXXX--++X+XX3333333333333333o:ooooooooooo<o333333333333333333",
"333333333333333333333333333X+&+&&++X%%:X-&X:X333333333333333333o%::::::<<<<<<o333333333333333333",
"3333333333333              X++&&-+XoooooX&X:o                  o%%%%%%%::::::o    33333333333333",
"33333333333  ;;;;;;;;;;;;;;X++&&-X%%%%<<X&+Xo;;;;;;;;;;;;;;;;;;;o%%%%%%:::<:o;;;;;  333333333333",
"3333333333 ;;;;,,,,,,,,,,,,X+&&--X%%%:::X-+Xo;,,,,,,,,,,,,,;;;;;o%%%%%:::<::o;;;,,;; 33333333333",
"3333333333 ;;,,,2222222222X++&+-X%%%%%:::X&+X22222222222222222222o%%%%%::::o;;222,;; 33333333333",
"333333333 ;;,,,22222222222X+&--XoooooooooX-+XX22222222222222222222o%%%%%::o;;2222,,,; 3333333333",
"333333333 ;,,222222222222X+&&+X;;;2222222X-&++X22222222222222222222ooooooo;;222222,,, 3333333333",
"33333333 @@@@@@2222222222X&&+X;;2222222222XX-+X22222222222222222222222222222222@@@@@@@ 333333333",
"33333333 $$$$$$;;;;;;;;;;X&XX;;;;;;;;;;;;;;;X&X;;;;;;;;;;;;;;;;;;;;;;;;;;;;;;;;$$$$$$$ 333333333",
"33333333 $$$$$$,,,,,,,,,X-X $$$,,,,,,,,,,,,,X-+X,,,,,,,,,,,,,,,,,,,,,,,,,,,,,,,$$$$$$$ 333333333",
"33333333 $$$$$$$$$$$$$$$X-X $$$$$$$$$$$$$$$$$X-X$$$$$$$$$$$$$$$$$$$$$$$$$$$$$$$$$$$$$$ 333333333",
"33333333 111111111111111X-X >>111111111111111X-X>1111111111111111111111111111111111111 333333333",
"33333333 111111111111111X+X >11111111111111111X>11111111111111111111111111111111111111 333333333",
"33333333 111111111111111X+X >111111111111111111111111111111111111111111111111111111111 333333333",
"33333333 1111111111111111XX >111111111111111111111111111111111111111111111111111111111 333333333",
"33333333 111111$$$$$$$$$$X+X$$$$$$$$$$$$$$$$$$$$$$$$$$$$$$$$$$$$$$$$$$$$$$$$$$$1111111 333333333",
"33333333 111111$$,,,,,,,X-+X$,,,,,,,,,,,,,,,,,,,,,,,,,,,,,,,,,,,,,,,,,,,,,,,,$$1111111 333333333",
"33333333 111111$$2222222X-&XX,22222222222222222222222222222222222222222222222$$1111111 333333333",
"33333333 111111$$2222222X&&-X,22222222222222222222222222222222222222222222222$$1111111 333333333",
"33333333 111111$$22222222X+-X,22222222222222222222222222222222222222222222222$$1111111 333333333",
"33333333 111111$$22222222X+X,222222222222222222222222222222222222222222222222$$1111111 333333333",
"33333333 111111$$22222222X+X,222222222222222222222222222222222222222222222222$$1111111 333333333",
"33333333 111111$$22222222X+X,2222   2222222222222222222222   2222222222222222$$1111111 333333333",
"33333333 111111$$22222222X+X,2222 $$222222222222,,,,,,,,,,$$ 2222222222222222$$1111111 333333333",
"33333333 111111$$22222222X+X,2222   $$$$$$$$$$$$$$$$$$$$$$   2222222222222222$$1111111 333333333",
"33333333 111111$$222222222X ,2222,,,,,,,,,,,,,,,,,222222222222222222222222222$$1111111 333333333",
"33333333 111111@@222222222222222222222222222222222222222222222222222222222222@@1111111 333333333",
"33333333 111111@@,,,,,,,,,,,,,,,,,,,,,,,,,,,,,,,,,,,,,,,,,,,,,,,,,,,,,,,,,,,,@@1111111 333333333",
"33333333 111111                                                                1111111 333333333",
"33333333 111111$$222222222222222222222222222222222222222222222222222222222222$$1111111 333333333",
"33333333 111111$$222222222222222222222222222222222222222222222222222222222222$$1111111 333333333",
"33333333 111111$$222222222222222222222222222222222222222222222222222222222222$$1111111 333333333",
"33333333 111111$$222222222222222222222222222222222222222222222222222222222222$$1111111 333333333",
"33333333 111111$$222222222222222222222222222222222222222222222222222222222222$$1111111 333333333",
"33333333 111111$$222222222222222222222222222222222222222222222222222222222222$$1111111 333333333",
"33333333 111111$$2222222222222222   2222222222222222222222   2222222222222222$$1111111 333333333",
"33333333 111111$$2222222222222222 $$2222222222222,,,,,,,,,$$ 2222222222222222$$1111111 333333333",
"33333333 111111$$2222222222222222   $$$$$$$$$$$$$$$$$$$$$$   2222222222222222$$1111111 333333333",
"33333333 111111$$2222222222222222,,,,,,,,,,,,,,,,,,,2222222222222222222222222$$1111111 333333333",
"33333333 111111@@222222222222222222222222222222222222222222222222222222222222@@1111111 333333333",
"33333333 111111@@,,,,,,,,,,,,,,,,,,,,,,,,,,,,,,,,,,,,,,,,,,,,,,,,,,,,,,,,,,,,@@1111111 333333333",
"33333333 111111                                                                1111111 333333333",
"33333333 111111$$222222222222222222222222222222222222222222222222222222222222$$1111111 333333333",
"33333333 111111$$222222222222222222222222222222222222222222222222222222222222$$1111111 333333333",
"33333333 111111$$222222222222222222222222222222222222222222222222222222222222$$1111111 333333333",
"33333333 111111$$222222222222222222222222222222222222222222222222222222222222$$1111111 333333333",
"33333333 111111$$222222222222222222222222222222222222222222222222222222222222$$1111111 333333333",
"33333333 111111$$222222222222222222222222222222222222222222222222222222222222$$1111111 333333333",
"33333333 111111$$222222222222222222222222222222222222222222222222222222222222$$1111111 333333333",
"33333333 111111$$222222222222222222222222222222222222222222222222222222222222$$1111111 333333333",
"33333333 111111$$222222222222222222222222222222222222222222222222222222222222$$1111111 333333333",
"33333333 111111$$222222222222222222222222222222222222222222222222222222222222$$1111111 333333333",
"33333333 111111$$222222222222222222222222222222222222222222222222222222222222$$1111111 333333333",
"33333333 111111$$222222222222222222222222222222222222222222222222222222222222$$1111111 333333333",
"33333333 111111$$222222222222222222222222222222222222222222222222222222222222$$1111111 333333333",
"33333333 111111$$222222222222222222222222222222222222222222222222222222222222$$1111111 333333333",
"33333333 111111$$222222222222222222222222222222222222222222222222222222222222$$1111111 333333333",
"33333333 111111$$2222222222222222   2222222222222222222222   2222222222222222$$1111111 333333333",
"33333333 111111$$2222222222222222 $$22222222222,,,,,,,,,,,$$ 2222222222222222$$1111111 333333333",
"33333333 111111$$2222222222222222   $$$$$$$$$$$$$$$$$$$$$$   2222222222222222$$1111111 333333333",
"33333333 111111$$2222222222222222,,,,,,,,,,,,,,,,,222222222222222222222222222$$1111111 333333333",
"33333333 111111@@222222222222222222222222222222222222222222222222222222222222@@1111111 333333333",
"33333333 111111@@;;;;;;;;;;;;;;;;;;;;;;;;;;;;;;;;;;;;;;;;;;;;;;;;;;;;;;;;;;;;@@1111111 333333333",
"33333333 111111@@@@@@@@@@@@@@@@@@@@@@@@@@@@@@@@@@@@@@@@@@@@@@@@@@@@@@@@@@@@@@@@1111111 333333333",
"33333333 11111122222222222222222222222222222222222222222222222222222222222222221111111 333333333",
"33333333 11111122222222222222222222222222222222222222222222222222222222222222221111111 333333333",
"33333333 11111122222222222222222222222222222222222222222222222222222222222222221111111 333333333",
"33333333 11111122222222222222222222222222222222222222222222222222222222222222221111111 333333333",
"33333333 11111122222222222222222222222222222222222222222222222222222222222222221111111 333333333",
"33333333 11111122222222222222222222222222222222222222222222222222222222222222221111111 333333333",
"33333333 11111122222222222222222222222222222222222222222222222222222222222222221111111 333333333",
"33333333 11111111111111111111111111111111111111111111111111111111111111111111111111111 333333333",
"33333333 11111111111111111111111111111111111111111111111111111111111111111111111111111 333333333",
"33333333 11111111111111111111111111111111111111111111111111111111111111111111111111111 333333333",
"33333333                                                                               333333333",
"333333333333333333333333333333333333333333333333333333333333333333333333333333333333333333333333",
"333333333333333333333333333333333333333333333333333333333333333333333333333333333333333333333333",
"333333333333333333333333333333333333333333333333333333333333333333333333333333333333333333333333"
};
