/* XPM */
static char *result[] = {
/* columns rows colors chars-per-pixel */
"96 96 67 1 ",
"  c #12590A",
". c #084C14",
"X c #067F3B",
"o c #226C2A",
"O c #3C6428",
"+ c #485F3D",
"@ c #44732E",
"# c #40643C",
"$ c #4A7731",
"% c #4D7034",
"& c #49713F",
"* c #507232",
"= c #517438",
"- c #046F41",
"; c #366F48",
": c #417D41",
"> c #5C7A53",
", c #6B7B43",
"< c #9D1410",
"1 c #983A10",
"2 c #588A3B",
"3 c #588D3E",
"4 c #5F8B41",
"5 c #5E8C41",
"6 c #588558",
"7 c #4D925B",
"8 c #608A40",
"9 c #669F4B",
"0 c #7C9443",
"q c #A58D39",
"w c #D9B308",
"e c #E0A904",
"r c #EDD400",
"t c #ECD500",
"y c #EFD700",
"u c #A39753",
"i c #A99656",
"p c #F5E647",
"a c #8E5E98",
"s c #9D6C95",
"d c #9F6FA3",
"f c #9F7EAA",
"g c #AD6DA0",
"h c #B06BA9",
"j c #BF79A6",
"k c #B373AD",
"l c #5196BB",
"z c #68B6D2",
"x c #61C1DE",
"c c #968A9F",
"v c #9682AB",
"b c #9782AB",
"n c #B880B7",
"m c #DEB5BE",
"M c #92CAAE",
"N c #F2E188",
"B c #CA8FCC",
"V c #CA8FCD",
"C c #CA8FCE",
"Z c #CB90CE",
"A c #CB90CF",
"S c #D492C5",
"D c #CB92D0",
"F c #9BE1C6",
"G c #9AD9F9",
"H c #DFEEF0",
"J c None",
/* pixels */
"JJJJJJJJJJJJJJJJJJJJJJJJJJJJJJJJJJJJJJJJJJJJJJJJJJJJJJJJJJJJJJJJJJJJJJJJJJJJJJJJJJJJJJJJJJJJJJJJ",
"JJJJJJJJJJJJJJJJJJJJJJJJJJJJJJJJJJJJJJJJJJJJJJJJJJJJJJJJJJJJJJJJJJJJJJJJJJJJJJJJJJJJJJJJJJJJJJJJ",
"JJJJJJJJJJJJJJJJJJJJJJJJJJJJJJJJJttttttttttJJJJJJJJJJJttttttttJJJJJJJJJJJJJJJJJJJJJJJJJJJJJJJJJJ",
"JJJJJJJJJJJJJJJJJJJJJJJJJJJJJJJJtttttttttttttttttttttttttttttttJJJJJJJJJJJJJJJJJJJJJJJJJJJJJJJJJ",
"JJJJJJJJJJJJJJJJJJJJJJJJJJJJJJJJppyyyyyyyyyyyyyyyyyyyyyyyyyyyywJJJJJJJJJJJJJJJJJJJJJJJJJJJJJJJJJ",
"JJJJJJJJJJJJJJJJJJJJJJJJJJJJJJJJpppppyyyyyyyyyyyyyyyyyyyyyyyyywJJJJJJJJJJJJJJJJJJJzJJJJJJJJJJJJJ",
"JJJJJJJJJJJJJJJJJJJJJJJJJJJJJJJJppppppyyyyyyyyyyyyyyyyyyyyyyyywJJJJJJZJJJJJJJJJJzzzJJJJJJJJJJJJJ",
"JJJJJJJJJJJJJJJJJJJJJJJJJJJJJJJJppppppyyyyyyyyyyyyyyyyyyyyyyyywJJJJgJZZJzfzJJJzzzzzzzzJJJJJJJJJJ",
"JJJJJJJJJJJJJJJJJJJJJJJJJJJJJJJJppppppyyyyyyyyyyyyyyyyyyyyyyywwJJJJgJZZJffzJJzzzzzzzJJJJzzzJJJJJ",
"JJJJJJJJJJJJJJJJJJJJJJJJJJJJJJJJpppppyyyyyyyyqqqqyyyyyyyyyyyywwJJJJgZZZJffJzJcczZzzzJzzzzzzJJJJJ",
"JJJJJJJJJJJJJJJJJJJJJJJJJJJJJJJJpppppyyyyyrrrrrrrrrrrryyyyyyywwjjnJggZZfffJzzczZZZzzzzzzzzJJJJJJ",
"JJJJJJJJJJJJJJJJJJJJJJJJJJJJJJJJppppprrrrr---------MMryyyyyyywwjjnnggZZfffzzcczZZZzzzzzzzJJJJzJJ",
"JJJJJJJJJJJJJJJJJJJJJJJJJJJJJJJJppppuNNNNN---iiiiiiiMNNNNNrrrwwjjnnggZZZffzcczzZZzdzzJJJJJzzzzJJ",
"JJJJJJJJJJJJJJJJJJJJJJJJJJJJJJJJppppuNNNNN---iiiiiiiMNNNNNrrrwwsjjnnggZSSfhccZZZzddzzdddzzzzzzJJ",
"JJJJJJJJJJJJJJJJJJJJJJJJJJJJJJ$$ppppuNNNNNNNNNNNNNNNNNNNNNrrrwwsjjnngggSSShccZZZzddzzddzzzzzzJJJ",
"JJJJJJJJJJJJJJJJJJJJJJJJ@@@@@@44pppp<N<<N<NNN<NN<N<N<N<N<NrrrwwssjnngggSSShhmZZjjddzddzkzzzJJJJJ",
"JJJJJJJJJJJJJJJJJJJJ$@@@$4444444pppp<<<<<NN<<N<<N<N<<NN<<<rrrwwssjnngggSShhmmmZjhhdddkkzzzJvJJJJ",
"JJJJJJJJJJJJJJJJJ$$@@44444444444ppppN<<NN<<<<<<<<N<<N<<<NNrrrwwsssjngggSShmmmmjjhhddkkzzzzvzJJJJ",
"JJJJJJJJJJJJJJJ$$@@4444444444444ppppN<<<<N<<<N<N<<N<N<N<<NrrrwwsssjjnggghhmmmjjhhhdkkzzzhvjJJJJJ",
"JJJJJJJJJJJJJJ$@@444444444444444ppppN<N<<<N<<<<<<<<N<NN<<NrrwwwaaassnnggghmmjjhhhkkkjzhhjjjJJJJJ",
"JJJJJJJJJJJJ@@@44444444444444444pppp<<<N<NNN<<NN<N<NNN<NN<rrwwwlaassnngghhmjjjhhkkjjjhhhjjjzzJJJ",
"JJJJJJJJJJ@@44444444444444444444ppprNNNNNN00000000000NNNNNrrwwwjjlaassnhhhjhhhjjjjhhhhjjjjazzJJJ",
"JJJJJJJ@@$4444444444444444444444ppprNNNNNN00000000000NNNNNrrwwwjjjjassshhhhhhjjjjjhhhjjjjaazJJJJ",
"JJJJJJJ@@$4444444444444444444444ppprNNNNNNNNNNNNNNNNNNNNNNrrwwwjjjjjassnhhhhjjjhhhhhjjjjaaazzJJJ",
"JJJJJJ@$$44444444444444444444444pprrNNNNNNNNNNNNNNNNNNNNNNrrwwwlljjjZjsahhhhhhhhjjjjaaaaazzJJJJJ",
"JJJJ$$44444444444444444444444@@@pprrNNNNNNNNNNNNNNNNNNNNNNrrwwwjjjjjZZjaaahaaaaaaaaaaaazzzzzJJJJ",
"JJJ#$44444444444444444444@@@@$#@pprrNNNNNNNNNNNNNNNNNNNNNNrrwwwjjjjjZZZaaaZZaaaaaallllzzzzJJJJJJ",
"JJJ#$44444444444444444444@@@@$#@pprrNNNNNNNNNNNNNNNNNNNXXXrrwwwjjjjjZZZZZZZZZZZZZZZZZzzzzzzzzzJJ",
"JJ#44444444444444444444444>>>>44pprrNNNNNNNNNNNNNNNNNNNXXXrrwwwlllllZZZlllZZZZZZZZZZZZZzzzzzzzJJ",
"JJ#44444444444444444444444444444pprrNNNNNNNNNNNNNNNNNNNXXXrrwwwzzzzjZZZzzzZZZZlllllZZZZZzJJJJJJJ",
"J#444444444444444444444444444444pprrNNNNNNNuuuuuuuNNNNXXXXrrwwwzzjjjlllzzzllZZZzzzzllllZZJJJJJJJ",
"J#444444444444444444444444444444pprrNNNNNNNNNNNNNNNNNNXXXXrrwwwzzjjjzzzzJJ66666666666666ZZJJJJJJ",
"J#444444444444444444444444444444pprrNNNNNNNNNNNNNNNNXXXXXNrrrwwjjjllzz666688888888888886666JJJJJ",
"J#444444444444444444444444444444pprrNNXXXXXXXNNNXXXXXXXXNNrrrwwjjlzzz668888888888888888888666JJJ",
"J#444444444444444444444444444444pprrNNXXXXXXXXXXXXXXXXXNNNrrrwwllz=======888888888888888888866JJ",
"J##44444444444444444444444444444pprrNNXXXXXXXXXXXXXXXXNNNNrrrwwJ===:::::====8888888888888888866J",
"Jl#$$444444444444444444444444444pprrNXXXXXXXXXXXXXXNNNNNNNrrrww::::::888888==888888888888888886J",
"zzlll$44444444444444444444444444pprrNXXXXXXXXXXXXXNNNNNNNNrrwww::::::88888888888888888888888886J",
"Jzzzz$44444444444444444444444444pprrNXXXXXXXXXXXXXNNNNNNNNrrwww::::::88888888888888888888888::6J",
"JJzzzl$4444444444444444444444444pprrNXXXXXXXXXXXXNNNNNNNNNrrwww::::::888888888888888888888::::lJ",
"JJJzzzl#######$$$$$$$4444444444@pprrXXXXXXXXXXXXX11111111Nrrwww::::::888888888888888888::::::lzJ",
"JJJJzzzlllllll#c#####$$C$$$$@@@@pprXXXXXXXXXXXXXNNNNNNNNNNrrwwwJJ::::8888888888888888::::::lzzzJ",
"JJJJJJzzzzzzdzZ#c###f$ZZ$$$$@@@@pprXXXXXXXXXXXNNNNNNNNNNNNrwwww333J:::::888888888888::::lllzzzzJ",
"JJJbJJJJdzzddzZlclllflZZlgllllllpprXXXXXXXXXXNNNNNNNNNNNNNrwwww33333Jzl::::::::::::::lllzzzzzzJJ",
"JJJJJJJkddzddZZZcczzffZZggzzzzzzpprXXXXXXXXXXNNNNNNNNNNNNNrwwww33333333zzzzllllllllllzzzzzzzJJJJ",
"JJJJvJJJkddddjZZccffZZZggnnzzzzzpprXXNNXXXXNNNNNNNNNNNNNNNrwwww3333339333zzzzzzzzzzzzzzzzzzJJJJJ",
"JJJjvvhJkkddhjZmmhhfSZgggnnjszzzpprqNNNNXXXNNNNNNNNNNNNNNNrwwww33333399333zzzzzzzzzzzzzzzJJJJJJJ",
"JJJjvvhJkkddhjZmmhhfSZgggnnjsJJJpprqNNNNNNNNooFFooNNNNNNNNrwwww33333399333zzzzzzzzzzzzzJJJJJJJJJ",
"JJJajjhhkkkhjjjmmmhSSgggnnjjsJaJpprqNNNNNNNNoo.eooNNNNNNNNrwwww33333399333JJJJJJJJJzJJJJJJJJJJJJ",
"zJJajjjhjjkhhjjmmhhSSgggnnjssjazpprNqqNNNNNNoo.eooNNNNNNNNrwwww33333399333zJJJJJJJJJJJJJJJJJJJJJ",
"zzzlajjhhhjkhhjmmhhSggnnjjsjjaJJppryyyyyyqqqoo  ooqqqq9373rwwww33333393333zJJJGJJJJJJJJJJJJJJJJJ",
"JzzzaaajjhhjjjhjjmhgggnnjssaalJJppryyyyyyyyyoo  ooyyyyyxxxxwwww33333393333zJJJJJJJJJJJJJJJJJJJJJ",
"JzzzlllajjjhjjjhhjhggnsjsssalJz9ppyyyyyyyyyyooooooyyyyyHHHHwwww33333393333zzzJJJJJJJJJJJJJJJJJJJ",
"JJJzzzzllaahhhhhhhnnssssaaaZZZZZpprqqqqyyyyyyyyyyyyyyyyxxxxywww33333333333zzzJJJJJJJJJJJJJJJJJJJ",
"JJJJJJZJZZZZZaahhhnssaaaZZZZZZZZppyqqyyyyyyyyyyyyyyyyyyyyyyyyww3333333333lzzJJJJJJJJJJJJJJJJJJJJ",
"JJJJZZZZZZZZZZaaaaasjZZZZZZlll33ppyyyyyyyyyyyyyyyyyyyyyyyyyyyyw3333333333zzzJJJJJJJJJJJJJJJJJJJJ",
"JJZZZZlZllZZZZZZZZaZZZZZZZlzzz33ppyyyyyyyyyyyyyyyyyyyyyyyyyyyyw3333333llzzzJJJJJJJJJJJJJJJJJJJJJ",
"JJlllzzzzzllZZZlZZZZllZZZZZzzzl7ppyyyyyyyyyyyyyyyyyyyyyyyyyyyww33333llzzzzJJJJJJJJJJJJJJJJJJJJJJ",
"JzzzzzzzzzzzZZZzZZZZzzZZZZZzzzzllwwwwwwwwwwwwwwwwwwwwwwwwwwww33333llzzzzzJJzJJJJJJJJJJJJJJJJJJJJ",
"zzzzzzzzzzJJZZlzllZZZZzJlZZZzzzJJ7733333333373777zzz93333333333333lzzzzzzzJJJJJJJJJJJJJJJJJJJJJJ",
"JJJJJJJJJJJZZzzzzzlZZZJJzlZZZJJJJJJ7777733777llllzzzl3333333333lllzzzzzJJJJzzJzzzJJJJJJJJJJJJJJJ",
"JJJJJJJJJJVllzzzzzz,,,,,,,,,,,,,,55lllllllllzzzzzzzzzllllllllllzzzzzJJJJJzzzzzzzzzJJJJJJJJJJJJJJ",
"JJJJJJJJJJlzzzzJJ,,555555555555522255555zzzzzzzzzzzDBzzzzzzzzzzzzzzzzzJOOOOOOOOOOOJJJJJJJJJJJJJJ",
"JJJJJJJJJJzzzJJJJ,,555555555555522255555zzzzzzzzzzzZZgzzzjzzzzzJJJJJOOOO&&&&&&&&&OOOOJJJJJJJJJJJ",
"JJJJJJJJ********J,,5555555555555555555555555zJJJJfzZZgJnzjzzzzJzzOOO&&&&%%%%%%%&&&&&&+++JJJJJJJJ",
"JJJJJJJJ*5555********55555555555555555555555555JJffZZgnnjjsJaJzOO&&&%%%%%%%%%%%%%%%%%%%+++JJJJJJ",
"JJJJJ;;5555555555555*****55555555555555555555,,JJfffZZgnnjsjaJ&&%%%%%%%%%%%%%%%%%%%%%%%%%++JJJJJ",
"JJJJ;5555555555555555555***5555555555555555dZZ,cJhfSZggnjssaJ&%%%%%%%%%%%%%%%%%%%%%%%%%%%%+JJJJJ",
"JJJJ;5555555555555555555***5555555555555555dZZZcchSSggnnjsazz+%%%%%%%%%%%%%OOOOOOO%%%%%%%%+JJJJJ",
"JJJJ;,,555555555555555555555555555555555555dZZZcchhSggnjjssl++%%%%%%%%%%%OOO+++OOOOOO%%%%++JJJJJ",
"JJJJ;,,,5555555555555555555555555555555d555d5ZZmmmmhSggnsslz+%%%%%%%%%%%%%%%%%%+++ll++++++lJJJJJ",
"JJJJ;;;225555555555555555555555555555555dddddjjjmmmhggnsaaZZ++%%%%%%%%%%%%%%%%%%%%++llllllJJJJJJ",
"JJJJ;;;225555555555555555555555555555555kkkddhhjjmjhhnsaZZZzz++OO%%%%%%%%%%%%%%%%%%%+zzzzzJJJJJJ",
"JJJJJ;;;222525555555555555555555555555555*kkkhkhhjhhhsaaZZZZzz+++OOO%%%%%%%%%%%%%%%+++zzzzJJJJJJ",
"JJJJJlll;222222,,555555555555555555555vhh;kjjkkjjhjhhnjZZZZZZZZZZ+++%OOOOO%%%%%%%%O+++zzJJJJJJJJ",
"JJJJJJJJl;;;;;;;,,,25555555555555555**jjjjhhhhjhhjjhaaZZZZlllZlllZll++++++OOOO%OO+++lzzzJJJJJJJJ",
"JJJJJJJJJJlllllz;;;;;;;;,,,*********;;;ajjjjjhhaaaaZZZZZZzzzzzzzzzzzlllll+++++++++llzzzJJJJJJJJJ",
"JJJJJJJJJJJJzzll;;;;;;;;,,,*********;;;;aajaaaaZZZZZllllZZZZzzzzzzzzzzzzzzllllllllzzzzJJJJJJJJJJ",
"JJJJJJJJJJJJJzzzllllllll;;;;;;;;;;;;llllllallZZZZZZZzzzzllZZZzzzzJJJzzzzzzzzzzzzzzzzzJJJJJJJJJJJ",
"JJJJJJJJJJJJJJJJzzzzzzzzllllllllllllzzzzzzlZZZZllZZlzzzzzzzllzzzzJJJJJJJJzJJJzzzzzzzzJJJJJJJJJJJ",
"JJJJJJJJJJJJJJJJJzzzzzzzzzzzzzzzzzzzzzzzzJJZllzzzZZzzzzzzzzzzzzzzJJJJJJJJJJJJJJJJJJJJJJJJJJJJJJJ",
"JJJJJJJJJJJJJJJJJJzzzzzzzzzzzzzzzzzzzzzJJZZZzzzzzZzzzzzzzzzzzzzzJJJJJJJJJJJJJJJJJJJJJJJJJJJJJJJJ",
"JJJJJJJJJJJJJJJJJJJJJJJzzzzzzzzzzzzzzJJJJZllzzzzJlAzzzzJJJJJJJJJJJJJJJJJJJJJJJJJJJJJJJJJJJJJJJJJ",
"JJJJJJJJJJJJJJJJJJJJJJJJJJJJJJJJJJJJJJJJJZzzzzzJJJlzzzJJJJJJJJJJJJJJJJJJJJJJJJJJJJJJJJJJJJJJJJJJ",
"JJJJJJJJJJJJJJJJJJJJJJJJJJJJJJJJJJJJJJJJJlzzzzJJJJJzJJJJJJJJJJJJJJJJJJJJJJJJJJJJJJJJJJJJJJJJJJJJ",
"JJJJJJJJJJJJJJJJJJJJJJJJJJJJJJJJJJJJJJJJJzzzzJJJJJJJJJJJJJJJJJJJJJJJJJJJJJJJJJJJJJJJJJJJJJJJJJJJ",
"JJJJJJJJJJJJJJJJJJJJJJJJJJJJJJJJJJJJJJJJJJJJJJJJJJJJJJJJJJJJJJJJJJJJJJJJJJJJJJJJJJJJJJJJJJJJJJJJ",
"JJJJJJJJJJJJJJJJJJJJJJJJJJJJJJJJJJJJJJJJJJJJJJJJJJJJJJJJJJJJJJJJJJJJJJJJJJJJJJJJJJJJJJJJJJJJJJJJ",
"JJJJJJJJJJJJJJJJJJJJJJJJJJJJJJJJJJJJJJJJJJJJJJJJJJJJJJJJJJJJJJJJJJJJJJJJJJJJJJJJJJJJJJJJJJJJJJJJ",
"JJJJJJJJJJJJJJJJJJJJJJJJJJJJJJJJJJJJJJJJJJJJJJJJJJJJJJJJJJJJJJJJJJJJJJJJJJJJJJJJJJJJJJJJJJJJJJJJ",
"JJJJJJJJJJJJJJJJJJJJJJJJJJJJJJJJJJJJJJJJJJJJJJJJJJJJJJJJJJJJJJJJJJJJJJJJJJJJJJJJJJJJJJJJJJJJJJJJ",
"JJJJJJJJJJJJJJJJJJJJJJJJJJJJJJJJJJJJJJJJJJJJJJJJJJJJJJJJJJJJJJJJJJJJJJJJJJJJJJJJJJJJJJJJJJJJJJJJ",
"JJJJJJJJJJJJJJJJJJJJJJJJJJJJJJJJJJJJJJJJJJJJJJJJJJJJJJJJJJJJJJJJJJJJJJJJJJJJJJJJJJJJJJJJJJJJJJJJ",
"JJJJJJJJJJJJJJJJJJJJJJJJJJJJJJJJJJJJJJJJJJJJJJJJJJJJJJJJJJJJJJJJJJJJJJJJJJJJJJJJJJJJJJJJJJJJJJJJ",
"JJJJJJJJJJJJJJJJJJJJJJJJJJJJJJJJJJJJJJJJJJJJJJJJJJJJJJJJJJJJJJJJJJJJJJJJJJJJJJJJJJJJJJJJJJJJJJJJ",
"JJJJJJJJJJJJJJJJJJJJJJJJJJJJJJJJJJJJJJJJJJJJJJJJJJJJJJJJJJJJJJJJJJJJJJJJJJJJJJJJJJJJJJJJJJJJJJJJ"
};
